<svg height="512" viewBox="0 0 512 512" width="512" xmlns="http://www.w3.org/2000/svg"><g><g><path d="m88 160h336a0 0 0 0 1 0 0v104a168 168 0 0 1 -168 168 168 168 0 0 1 -168-168v-104a0 0 0 0 1 0 0z" fill="#e0e0e2"/><circle cx="256" cy="296" fill="#3e3d42" r="104"/><path d="m16 80h480v48h-480z" fill="#787680"/><path d="m56 128h400v32h-400z" fill="#acabb1"/><circle cx="256" cy="296" fill="#78b9eb" r="80"/><circle cx="224" cy="312" fill="#e0e0e2" r="24"/><circle cx="288" cy="272" fill="#e0e0e2" r="16"/><path d="m368 184h32v24h-32z" fill="#ffda44"/></g><g><path d="m496 72h-480a8 8 0 0 0 -8 8v48a8 8 0 0 0 8 8h32v24a8 8 0 0 0 8 8h24v96c0 97.05 78.95 176 176 176s176-78.95 176-176v-96h24a8 8 0 0 0 8-8v-24h32a8 8 0 0 0 8-8v-48a8 8 0 0 0 -8-8zm-80 192c0 88.22-71.78 160-160 160s-160-71.78-160-160v-96h320zm32-112h-384v-16h384zm40-32h-464v-32h464z"/><path d="m256 384a88 88 0 1 0 -88-88 88.1 88.1 0 0 0 88 88zm0-160a72 72 0 1 1 -72 72 72.081 72.081 0 0 1 72-72z"/><path d="m256 408a112 112 0 1 0 -112-112 112.127 112.127 0 0 0 112 112zm0-208a96 96 0 1 1 -96 96 96.108 96.108 0 0 1 96-96z"/><path d="m256 312a32 32 0 1 0 -32 32 32.036 32.036 0 0 0 32-32zm-48 0a16 16 0 1 1 16 16 16.019 16.019 0 0 1 -16-16z"/><path d="m288 296a24 24 0 1 0 -24-24 24.027 24.027 0 0 0 24 24zm0-32a8 8 0 1 1 -8 8 8.009 8.009 0 0 1 8-8z"/><path d="m368 216h32a8 8 0 0 0 8-8v-24a8 8 0 0 0 -8-8h-32a8 8 0 0 0 -8 8v24a8 8 0 0 0 8 8zm8-24h16v8h-16z"/></g></g></svg>