<?xml version="1.0" encoding="iso-8859-1"?>
<!-- Generator: Adobe Illustrator 19.0.0, SVG Export Plug-In . SVG Version: 6.00 Build 0)  -->
<svg version="1.1" id="Capa_1" xmlns="http://www.w3.org/2000/svg" xmlns:xlink="http://www.w3.org/1999/xlink" x="0px" y="0px"
	 viewBox="0 0 512 512" style="enable-background:new 0 0 512 512;" xml:space="preserve">
<rect x="21.943" style="fill:#666666;" width="468.114" height="512"/>
<rect x="57.151" y="88.931" style="fill:#FFD371;" width="335.005" height="423.069"/>
<rect x="356.312" y="88.931" style="fill:#DEAF50;" width="35.84" height="423.069"/>
<rect x="216.296" y="88.931" style="fill:#4D4D4D;" width="16.718" height="423.069"/>
<g>
	<rect x="206.892" y="88.931" style="fill:#DEAF50;" width="15.673" height="423.069"/>
	<rect x="226.745" y="88.931" style="fill:#DEAF50;" width="15.673" height="423.069"/>
</g>
<path style="fill:#4D4D4D;" d="M399.993,512H384.32V96.763H64.987V512H49.314V88.926c0-4.328,3.508-7.837,7.837-7.837h335.006
	c4.329,0,7.837,3.509,7.837,7.837V512z"/>
<path style="fill:#A6C8E8;" d="M298.434,69.245H150.872c-5.418,0-9.811-4.393-9.811-9.811v-33.95c0-5.418,4.393-9.811,9.811-9.811
	h147.563c5.418,0,9.811,4.393,9.811,9.811v33.95C308.245,64.853,303.853,69.245,298.434,69.245z"/>
<path style="fill:#B3B3B3;" d="M452.758,293.897h-21.523c-5.599,0-10.137-4.538-10.137-10.137v-57.049
	c0-5.599,4.538-10.137,10.137-10.137h21.523c5.599,0,10.137,4.538,10.137,10.137v57.049
	C462.895,289.359,458.357,293.897,452.758,293.897z"/>
<circle style="fill:#F74B68;" cx="441.994" cy="255.237" r="11.494"/>
<g>
</g>
<g>
</g>
<g>
</g>
<g>
</g>
<g>
</g>
<g>
</g>
<g>
</g>
<g>
</g>
<g>
</g>
<g>
</g>
<g>
</g>
<g>
</g>
<g>
</g>
<g>
</g>
<g>
</g>
</svg>
