<svg id="Layer_1" enable-background="new 0 0 512 512" height="512" viewBox="0 0 512 512" width="512" xmlns="http://www.w3.org/2000/svg"><g id="XMLID_3101_"><path id="XMLID_3123_" d="m208.544 90.822 286.266 286.265-75.336 75.336h-.004v-35.726h-35.462v-24.841h-35.461v-24.84h-35.462v-24.84h-35.461v-24.84h-35.462v-24.84h-35.461v-24.841h-35.462v-24.84h-35.461v-24.84h-35.462l-.001.001.001-.001-41.351-41.351z" fill="#e2e9ee"/><path id="XMLID_3122_" d="m25.127 79.459-3.38 3.38c-15.621 15.621-15.621 40.948 0 56.569l37.942 37.942h62.329l86.527-86.527-69.106-69.106c-15.621-15.621-40.948-15.621-56.569 0l-3.479 3.479z" fill="#ff9171"/><g id="XMLID_3119_"><path id="XMLID_3120_" d="m111.154 55.657-55.466 55.466 22.226 22.226h25.878l42.528-42.528z" fill="#fff"/></g><path id="XMLID_3114_" d="m10 502h424.214 37.786 30v-168h-492z" fill="#ffda8f"/><g id="XMLID_251_"><path id="XMLID_548_" d="m77.913 143.35h25.878c2.652 0 5.196-1.054 7.071-2.929l42.527-42.527c3.905-3.905 3.905-10.237 0-14.143l-35.165-35.165c-1.875-1.875-4.419-2.929-7.071-2.929s-5.196 1.054-7.071 2.929l-55.467 55.467c-3.905 3.905-3.905 10.237 0 14.143l22.226 22.226c1.876 1.874 4.42 2.928 7.072 2.928zm33.241-73.55 21.022 21.022-32.527 32.528h-17.594l-12.225-12.226z"/><path id="XMLID_560_" d="m502 324h-46.135l-86.843-86.842c-3.905-3.904-10.237-3.904-14.142 0-3.905 3.905-3.905 10.237 0 14.143l72.7 72.699h-139.956v-6.664c0-5.522-4.477-10-10-10h-25.461v-14.84c0-5.522-4.477-10-10-10h-25.461v-14.841c0-5.522-4.477-10-10-10h-25.461v-14.84c0-5.522-4.477-10-10-10h-25.461v-14.841c0-5.522-4.477-10-10-10h-31.32l-20.627-20.624h38.184c2.652 0 5.196-1.054 7.071-2.929l79.456-79.456 82.696 82.695c1.952 1.952 4.512 2.929 7.071 2.929s5.119-.977 7.071-2.929c3.905-3.905 3.905-10.237 0-14.143l-158.873-158.872c-9.444-9.444-22-14.645-35.355-14.645-13.356 0-25.912 5.201-35.356 14.645l-61.123 61.123c-19.494 19.495-19.494 51.216 0 70.711l78.373 78.369c.782.827 1.719 1.534 2.796 2.072 1.513.757 3.116 1.101 4.708 1.055h25.227v14.841c0 5.522 4.477 10 10 10h25.461v14.84c0 5.522 4.477 10 10 10h25.461v14.841c0 5.522 4.477 10 10 10h25.461v14.84c0 2.563.973 4.894 2.559 6.664h-224.721c-5.523 0-10 4.478-10 10v168c0 5.522 4.477 10 10 10h492c5.523 0 10-4.478 10-10v-168.001c0-5.522-4.477-10-10-10zm-473.183-234.09 61.124-61.123c5.666-5.667 13.2-8.787 21.213-8.787s15.547 3.12 21.213 8.787l62.036 62.035-76.527 76.527h-54.046l-35.013-35.014c-11.696-11.695-11.696-30.729 0-42.425zm256.051 402.09c19.413-6.263 38.357-13.958 56.594-23.051 3.554-1.771 5.722-5.478 5.526-9.443s-2.72-7.44-6.431-8.853l-10.348-3.937c-46.586-17.728-95.481-26.716-145.326-26.716-5.523 0-10 4.478-10 10s4.477 10 10 10c43.082 0 85.415 7.06 126.035 21.003-47.845 20.254-99.848 30.997-151.779 30.997h-139.139v-52h90c5.523 0 10-4.478 10-10s-4.477-10-10-10h-90v-76h442.354c-11.032 5.994-22.596 11.105-34.446 15.223-5.217 1.813-7.977 7.512-6.164 12.729 1.436 4.131 5.306 6.721 9.446 6.721 1.088 0 2.196-.18 3.283-.557 14.722-5.115 29.037-11.643 42.546-19.4l14.981-8.603v69.887h-113.667c-5.523 0-10 4.478-10 10s4.477 10 10 10h113.667v52z"/><path id="XMLID_562_" d="m352.204 372h-96.204c-5.523 0-10 4.478-10 10s4.477 10 10 10h96.204c5.523 0 10-4.478 10-10s-4.477-10-10-10z"/><path id="XMLID_563_" d="m205 372h-131.609c-5.523 0-10 4.478-10 10s4.477 10 10 10h131.609c5.523 0 10-4.478 10-10s-4.478-10-10-10z"/><path id="XMLID_567_" d="m330.13 222.41c2.63 0 5.21-1.07 7.07-2.931 1.86-1.859 2.93-4.439 2.93-7.069s-1.07-5.21-2.93-7.07-4.43-2.93-7.07-2.93c-2.63 0-5.21 1.069-7.07 2.93-1.86 1.86-2.93 4.44-2.93 7.07s1.07 5.21 2.93 7.069c1.86 1.861 4.44 2.931 7.07 2.931z"/></g></g></svg>