<svg id="Layer_3" height="512" viewBox="0 0 64 64" width="512" xmlns="http://www.w3.org/2000/svg" data-name="Layer 3"><path d="m6 55a4 4 0 0 1 -4-4v-3a7 7 0 0 1 7-7h6l3.575-3.575a25.35 25.35 0 0 1 17.925-7.425 25.35 25.35 0 0 1 17.925 7.425l3.575 3.575a4 4 0 0 1 4 4v7a3 3 0 0 1 -3 3z" fill="#3b5892"/><path d="m59 41.141a3.977 3.977 0 0 0 -1-.141l-3.237-3.237a26.141 26.141 0 0 0 -12.363-7.07 25.364 25.364 0 0 0 -23.829 6.732l-3.571 3.575h-6a7 7 0 0 0 -7 7v3a3.977 3.977 0 0 0 .141 1h53.859a3 3 0 0 0 3-3z" fill="#4c6cb5"/><path d="m58 41h-21v-10.995a25.351 25.351 0 0 1 17.425 7.42z" fill="#c0dafc"/><path d="m15 41 3.575-3.575a25.35 25.35 0 0 1 17.925-7.425h.5v11z" fill="#e2e7f6"/><path d="m62 47h-4a2 2 0 0 1 -2-2v-4h2a4 4 0 0 1 4 4z" fill="#b52f28"/><path d="m10 41v4a3 3 0 0 1 -3 3h-5a7 7 0 0 1 7-7z" fill="#f0ae42"/><circle cx="19" cy="55" fill="#939393" r="7"/><circle cx="49" cy="55" fill="#939393" r="7"/><path d="m28 44h8v2h-8z" fill="#3b5892"/><path d="m38 44h8v2h-8z" fill="#3b5892"/><circle cx="19" cy="55" fill="#686868" r="3"/><circle cx="49" cy="55" fill="#686868" r="3"/><path d="m2.5 45.424h3.149a2 2 0 0 0 2-2v-2.291a7 7 0 0 0 -5.149 4.291z" fill="#f9d266"/><path d="m59.815 43.424v-1.97a3.954 3.954 0 0 0 -1.815-.454h-2v3.424h2.815a1 1 0 0 0 1-1z" fill="#d23f34"/><path d="m48 26 3 4h7l4-4h-4l-2-1v-4l2-1h4l-4-4h-7l-3 4h-32l-3-4h-7l-4 4h4l2 1v4l-2 1h-4l4 4h7l3-4z" fill="#686868"/><path d="m32.243 20 3.858-3.858 4.949.707 4.95-4.95v-5.656l-2.828 2.828-2.122.707-2.828-2.828.707-2.122 2.828-2.828h-5.656l-4.95 4.95.707 4.949-8.101 8.101" fill="#939393"/><path d="m53.45 21v-5h-2.45l-3 4h-32l-3-4h-7l-4 4h4l2 1v2h43.45a2 2 0 0 0 2-2z" fill="#777"/></svg>