<svg height="512" viewBox="0 0 64 64" width="512" xmlns="http://www.w3.org/2000/svg"><g id="Layer_14" data-name="Layer 14"><path d="m30 16h4v26h-4z" fill="#e2e7f6"/><path d="m2 46h60v12h-60z" fill="#b5b5b5"/><path d="m58 52v-6h-56v8h54a2 2 0 0 0 2-2z" fill="#ccc"/><path d="m4 46v-4h6v4" fill="#5e87ca"/><path d="m5 42v-36l4 3v33" fill="#e2e7f6"/><path d="m60 46v-4h-6v4" fill="#5e87ca"/><path d="m59 42v-36l-4 3v33" fill="#e2e7f6"/><path d="m6 58v4h52v-4" fill="#3b5892"/><path d="m56 59v-1h-50v2h49a1 1 0 0 0 1-1z" fill="#4c6cb5"/><path d="m28 46v-2a2 2 0 0 1 2-2h4a2 2 0 0 1 2 2v2" fill="#3b5892"/><circle cx="32" cy="13" fill="#b52f28" r="4"/><path d="m32 9a3.994 3.994 0 0 0 -3.281 6.28 3.994 3.994 0 0 0 5.562-5.561 3.977 3.977 0 0 0 -2.281-.719z" fill="#d23f34"/><g fill="#ccc"><path d="m19.687 23.92a16 16 0 0 1 0-22.627l1.413 1.414a14 14 0 0 0 0 19.8z"/><path d="m22.515 21.092a12 12 0 0 1 0-16.97l1.414 1.414a10 10 0 0 0 0 14.142z"/><path d="m25.343 18.263a8.009 8.009 0 0 1 0-11.313l1.414 1.414a6.007 6.007 0 0 0 0 8.485z"/><path d="m44.364 23.92-1.414-1.414a14.017 14.017 0 0 0 0-19.8l1.414-1.414a16.017 16.017 0 0 1 0 22.628z"/><path d="m41.535 21.092-1.414-1.414a10 10 0 0 0 0-14.142l1.414-1.414a12 12 0 0 1 0 16.97z"/><path d="m38.707 18.263-1.414-1.414a6.007 6.007 0 0 0 0-8.485l1.414-1.414a8.009 8.009 0 0 1 0 11.313z"/></g><circle cx="56" cy="52" fill="#5e87ca" r="2"/><circle cx="48" cy="52" fill="#5e87ca" r="2"/><circle cx="16" cy="52" fill="#5e87ca" r="2"/><circle cx="24" cy="52" fill="#5e87ca" r="2"/><circle cx="8" cy="52" fill="#5e87ca" r="2"/><path d="m29 52h14v2h-14z" fill="#f2f2f2"/></g></svg>