<?xml version="1.0" encoding="UTF-8"?>
<!DOCTYPE svg PUBLIC "-//W3C//DTD SVG 1.1//EN" "http://www.w3.org/Graphics/SVG/1.1/DTD/svg11.dtd">
<svg xmlns="http://www.w3.org/2000/svg" version="1.1" width="193px" height="195px" style="shape-rendering:geometricPrecision; text-rendering:geometricPrecision; image-rendering:optimizeQuality; fill-rule:evenodd; clip-rule:evenodd" xmlns:xlink="http://www.w3.org/1999/xlink">
<g><path style="opacity:0.879" fill="#cccccc" d="M 54.5,-0.5 C 55.5,-0.5 56.5,-0.5 57.5,-0.5C 58.6253,1.12879 59.9586,2.62879 61.5,4C 47.4857,19.5704 44.6524,37.0704 53,56.5C 55.3494,60.5278 58.1827,64.1945 61.5,67.5C 60.1667,69.5 58.5,71.1667 56.5,72.5C 46.1532,62.6303 40.8198,50.4637 40.5,36C 41.1758,22.1731 45.8425,10.0064 54.5,-0.5 Z"/></g>
<g><path style="opacity:0.878" fill="#cccccc" d="M 134.5,-0.5 C 135.167,-0.5 135.833,-0.5 136.5,-0.5C 151.478,17.1103 154.645,36.7769 146,58.5C 143.218,63.7418 139.718,68.4085 135.5,72.5C 133.5,71.1667 131.833,69.5 130.5,67.5C 147.805,46.3385 147.805,25.1718 130.5,4C 132.041,2.62879 133.375,1.12879 134.5,-0.5 Z"/></g>
<g><path style="opacity:0.874" fill="#cccccc" d="M 64.5,8.5 C 66.8863,9.37331 68.8863,10.8733 70.5,13C 57.2234,28.1955 57.2234,43.3622 70.5,58.5C 69.1667,60.5 67.5,62.1667 65.5,63.5C 57.4427,56.0202 53.4427,46.6869 53.5,35.5C 53.6021,24.9734 57.2687,15.9734 64.5,8.5 Z"/></g>
<g><path style="opacity:0.875" fill="#cccccc" d="M 124.5,8.5 C 127.988,9.14342 130.488,11.1434 132,14.5C 141.358,32.153 139.524,48.4863 126.5,63.5C 124.5,62.1667 122.833,60.5 121.5,58.5C 133.493,43.4474 133.493,28.4474 121.5,13.5C 122.952,12.0603 123.952,10.3936 124.5,8.5 Z"/></g>
<g><path style="opacity:0.914" fill="#e1e6f6" d="M 22.5,129.5 C 17.8333,130.833 13.1667,130.833 8.5,129.5C 8.16677,91.1609 8.5001,52.8275 9.5,14.5C 13.9315,17.1324 18.0982,20.1324 22,23.5C 22.5,58.8318 22.6667,94.1651 22.5,129.5 Z"/></g>
<g><path style="opacity:0.985" fill="#e1e6f5" d="M 182.5,129.5 C 178.167,130.833 173.833,130.833 169.5,129.5C 169.333,94.1651 169.5,58.8318 170,23.5C 173.69,20.3092 177.523,17.3092 181.5,14.5C 182.5,52.8275 182.833,91.1609 182.5,129.5 Z"/></g>
<g><path style="opacity:0.87" fill="#cccccc" d="M 73.5,17.5 C 76.0692,18.3956 78.0692,20.0623 79.5,22.5C 71.5,31.5 71.5,40.5 79.5,49.5C 78.1667,51.5 76.5,53.1667 74.5,54.5C 66.694,46.6029 64.5274,37.2695 68,26.5C 69.3426,23.1381 71.176,20.1381 73.5,17.5 Z"/></g>
<g><path style="opacity:0.867" fill="#cdcdcd" d="M 116.5,17.5 C 118.017,17.5106 119.184,18.1772 120,19.5C 127.875,31.8488 127.042,43.5154 117.5,54.5C 115.5,53.1667 113.833,51.5 112.5,49.5C 119.112,40.432 119.112,31.432 112.5,22.5C 113.857,20.8144 115.19,19.1477 116.5,17.5 Z"/></g>
<g><path style="opacity:1" fill="#d13e33" d="M 103.5,26.5 C 107.534,35.2677 105.201,41.7677 96.5,46C 92.9304,46.2618 89.5971,46.4285 86.5,46.5C 81.7369,41.0218 81.2369,35.0218 85,28.5C 90.7295,22.7798 96.8962,22.1131 103.5,26.5 Z"/></g>
<g><path style="opacity:0.953" fill="#b63129" d="M 103.5,26.5 C 107.424,28.8494 109.09,32.3494 108.5,37C 108.993,42.1812 106.993,46.0145 102.5,48.5C 97.8333,49.8333 93.1667,49.8333 88.5,48.5C 87.8333,47.8333 87.1667,47.1667 86.5,46.5C 89.5971,46.4285 92.9304,46.2618 96.5,46C 105.201,41.7677 107.534,35.2677 103.5,26.5 Z"/></g>
<g><path style="opacity:0.977" fill="#e1e6f5" d="M 88.5,48.5 C 93.1667,49.8333 97.8333,49.8333 102.5,48.5C 102.5,75.5 102.5,102.5 102.5,129.5C 97.9335,130.797 93.2669,130.797 88.5,129.5C 88.5,102.5 88.5,75.5 88.5,48.5 Z"/></g>
<g><path style="opacity:0.982" fill="#3f5b93" d="M 88.5,129.5 C 93.2669,130.797 97.9335,130.797 102.5,129.5C 104.679,129.84 106.512,130.84 108,132.5C 109.043,135.757 109.543,139.09 109.5,142.5C 100.402,143.815 91.4017,143.815 82.5,142.5C 80.9555,136.32 82.9555,131.986 88.5,129.5 Z"/></g>
<g><path style="opacity:0.978" fill="#6188c9" d="M 8.5,129.5 C 13.1667,130.833 17.8333,130.833 22.5,129.5C 23.5,129.5 24.5,129.5 25.5,129.5C 25.5,133.833 25.5,138.167 25.5,142.5C 18.8333,143.833 12.1667,143.833 5.5,142.5C 5.5,138.167 5.5,133.833 5.5,129.5C 6.5,129.5 7.5,129.5 8.5,129.5 Z"/></g>
<g><path style="opacity:1" fill="#6188c9" d="M 169.5,129.5 C 173.833,130.833 178.167,130.833 182.5,129.5C 183.833,129.5 185.167,129.5 186.5,129.5C 186.5,133.833 186.5,138.167 186.5,142.5C 184.283,143.369 181.95,143.702 179.5,143.5C 174.737,143.774 170.07,143.441 165.5,142.5C 165.5,138.167 165.5,133.833 165.5,129.5C 166.833,129.5 168.167,129.5 169.5,129.5 Z"/></g>
<g><path style="opacity:0.993" fill="#b5b5b5" d="M 186.5,142.5 C 188.5,142.5 190.5,142.5 192.5,142.5C 192.5,155.5 192.5,168.5 192.5,181.5C 188.167,181.5 183.833,181.5 179.5,181.5C 177.167,181.5 174.833,181.5 172.5,181.5C 119.167,181.5 65.8333,181.5 12.5,181.5C 12.1667,181.5 11.8333,181.5 11.5,181.5C 7.5,181.5 3.5,181.5 -0.5,181.5C -0.5,177.167 -0.5,172.833 -0.5,168.5C 4.83333,168.5 10.1667,168.5 15.5,168.5C 17.9496,168.702 20.283,168.369 22.5,167.5C 28.5,168.833 34.5,168.833 40.5,167.5C 42.717,168.369 45.0504,168.702 47.5,168.5C 54.0221,168.823 60.3554,168.49 66.5,167.5C 68.8333,168.833 71.1667,168.833 73.5,167.5C 77.6344,168.485 81.9677,168.818 86.5,168.5C 93.8257,169.166 101.326,169.5 109,169.5C 120.704,169.657 132.204,168.99 143.5,167.5C 145.833,168.833 148.167,168.833 150.5,167.5C 156.645,168.49 162.978,168.823 169.5,168.5C 176.343,169.322 179.676,166.322 179.5,159.5C 179.5,154.167 179.5,148.833 179.5,143.5C 181.95,143.702 184.283,143.369 186.5,142.5 Z"/></g>
<g><path style="opacity:1" fill="#cbcbcb" d="M -0.5,142.5 C 1.5,142.5 3.5,142.5 5.5,142.5C 12.1667,143.833 18.8333,143.833 25.5,142.5C 44.5,142.5 63.5,142.5 82.5,142.5C 91.4017,143.815 100.402,143.815 109.5,142.5C 128.167,142.5 146.833,142.5 165.5,142.5C 170.07,143.441 174.737,143.774 179.5,143.5C 179.5,148.833 179.5,154.167 179.5,159.5C 176.754,156.695 173.421,155.861 169.5,157C 165.673,160.752 165.673,164.585 169.5,168.5C 162.978,168.823 156.645,168.49 150.5,167.5C 154.42,164.042 154.42,160.542 150.5,157C 143.672,155.176 140.506,157.676 141,164.5C 141.852,165.571 142.685,166.571 143.5,167.5C 132.204,168.99 120.704,169.657 109,169.5C 101.326,169.5 93.8257,169.166 86.5,168.5C 81.9677,168.818 77.6344,168.485 73.5,167.5C 77.4197,164.042 77.4197,160.542 73.5,157C 66.6724,155.176 63.5058,157.676 64,164.5C 64.8518,165.571 65.6851,166.571 66.5,167.5C 60.3554,168.49 54.0221,168.823 47.5,168.5C 51.0032,165.141 51.3365,161.474 48.5,157.5C 39.1492,155.542 36.4825,158.875 40.5,167.5C 34.5,168.833 28.5,168.833 22.5,167.5C 27.044,162.008 25.8773,158.342 19,156.5C 11.7588,158.488 10.5921,162.488 15.5,168.5C 10.1667,168.5 4.83333,168.5 -0.5,168.5C -0.5,159.833 -0.5,151.167 -0.5,142.5 Z"/></g>
<g><path style="opacity:1" fill="#6289ca" d="M 22.5,167.5 C 20.283,168.369 17.9496,168.702 15.5,168.5C 10.5921,162.488 11.7588,158.488 19,156.5C 25.8773,158.342 27.044,162.008 22.5,167.5 Z"/></g>
<g><path style="opacity:1" fill="#6088ca" d="M 47.5,168.5 C 45.0504,168.702 42.717,168.369 40.5,167.5C 36.4825,158.875 39.1492,155.542 48.5,157.5C 51.3365,161.474 51.0032,165.141 47.5,168.5 Z"/></g>
<g><path style="opacity:1" fill="#6289ca" d="M 73.5,167.5 C 71.1667,168.833 68.8333,168.833 66.5,167.5C 65.6851,166.571 64.8518,165.571 64,164.5C 63.5058,157.676 66.6724,155.176 73.5,157C 77.4197,160.542 77.4197,164.042 73.5,167.5 Z"/></g>
<g><path style="opacity:1" fill="#6289ca" d="M 150.5,167.5 C 148.167,168.833 145.833,168.833 143.5,167.5C 142.685,166.571 141.852,165.571 141,164.5C 140.506,157.676 143.672,155.176 150.5,157C 154.42,160.542 154.42,164.042 150.5,167.5 Z"/></g>
<g><path style="opacity:1" fill="#6389c9" d="M 179.5,159.5 C 179.676,166.322 176.343,169.322 169.5,168.5C 165.673,164.585 165.673,160.752 169.5,157C 173.421,155.861 176.754,156.695 179.5,159.5 Z"/></g>
<g><path style="opacity:1" fill="#f1f2f1" d="M 86.5,168.5 C 86.5,166.5 86.5,164.5 86.5,162.5C 101.167,162.5 115.833,162.5 130.5,162.5C 130.5,164.5 130.5,166.5 130.5,168.5C 115.833,168.5 101.167,168.5 86.5,168.5 Z"/></g>
<g><path style="opacity:0.956" fill="#3b5994" d="M 11.5,181.5 C 11.8333,181.5 12.1667,181.5 12.5,181.5C 12.5,183.5 12.5,185.5 12.5,187.5C 65.501,187.667 118.501,187.5 171.5,187C 172.406,185.301 172.739,183.467 172.5,181.5C 174.833,181.5 177.167,181.5 179.5,181.5C 179.5,185.833 179.5,190.167 179.5,194.5C 123.5,194.5 67.5,194.5 11.5,194.5C 11.5,190.167 11.5,185.833 11.5,181.5 Z"/></g>
<g><path style="opacity:1" fill="#4b6bb4" d="M 12.5,181.5 C 65.8333,181.5 119.167,181.5 172.5,181.5C 172.739,183.467 172.406,185.301 171.5,187C 118.501,187.5 65.501,187.667 12.5,187.5C 12.5,185.5 12.5,183.5 12.5,181.5 Z"/></g>
</svg>
