<svg id="Capa_1" enable-background="new 0 0 512 512" height="512" viewBox="0 0 512 512" width="512" xmlns="http://www.w3.org/2000/svg"><g id="_x30_2_Paint_brush"><path d="m397.765 331.708-89.587-127.885-127.885-89.586-21.747 21.747 89.874 122.489 105.743 73.128z" fill="#736572"/><path d="m360.589 316.201h30.751v30.905h-30.751z" fill="#615260" transform="matrix(.707 -.707 .707 .707 -124.397 362.986)"/><path d="m301.767 5.137.008 26.613c.002 7.324 5.125 13.451 11.982 14.997 1.091.246 35.536 71.075 35.536 71.075 4.43.001 54.259-14.448 57.064-11.449 2.571 2.748 4.145 6.439 4.146 10.498l.008 23.615c.003 8.489 6.884 15.37 15.373 15.373l17.247.005 14.944 41.717s6.971-.121 7.286 1.103c1.362 5.306 5.484 9.505 10.746 10.976 1.319.369 2.709.566 4.145.566l-57.563 77.625-46.777 22.002-195.619-195.616 112.723-112.723c3.229-3.229 8.749-.943 8.751 3.623z" fill="#fcf1f2"/><path d="m510.49 218.981-112.727 112.727-21.853-21.853 100.197-100.197c1.318.371 2.71.568 4.138.568l26.625.007c4.559 0 6.847 5.521 3.62 8.748z" fill="#f4e5e0"/><path d="m406.359 106.371-58.975 58.975c-6.002 6.002-15.742 5.995-21.744-.007-3.001-3.001-4.502-6.935-4.502-10.868-.007-3.941 1.493-7.874 4.495-10.876l4.349-4.349c6.01-6.01 6.01-15.742.007-21.744-3.001-3.001-6.942-4.509-10.876-4.509s-7.874 1.508-10.876 4.509l-24.279 24.279c-9.011 9.011-23.616 9.004-32.62 0-4.502-4.502-6.76-10.402-6.753-16.31 0-5.9 2.244-11.801 6.753-16.31l62.42-62.42c1.085.255 2.222.386 3.387.386h23.616c8.486.007 15.37 6.891 15.377 15.377v23.616c.007 8.486 6.891 15.37 15.37 15.37l23.623.007c4.431.001 8.423 1.88 11.228 4.874z" fill="#9ae59c"/><path d="m465.399 198.832-29.575 29.575c-4.509 4.509-10.409 6.753-16.31 6.753-5.908.007-11.808-2.251-16.31-6.753-9.011-9.011-9.011-23.609 0-32.62l39.926-39.926h6.367c8.486.007 15.37 6.891 15.377 15.377v23.616c.008 1.378.19 2.711.525 3.978z" fill="#ff8d95"/><path d="m158.549 135.982-14.503 14.503c-10.009 10.009-10.002 26.231.007 36.24l52.87 52.87c7.991 7.991 8.006 20.943.036 28.956l-7.241 7.343-145.986 121.206c-5.187 4.312-10.184 8.858-14.955 13.629l-13.767 13.768c-16.21 16.21-19.288 40.573-9.244 59.885 2.36 4.537 14.702 9.938 27.814 9.938 13.127 0 26.246-5.004 36.255-15.013l13.76-13.76c4.771-4.771 9.317-9.768 13.629-14.955l121.206-145.987 7.343-7.241c8.013-7.969 20.965-7.955 28.956.036l51.456 51.456c10.009 10.009 26.231 10.016 36.24.007l14.503-14.503zm-107.292 345.261c-5.245 0-10.49-1.996-14.496-6.002-8.006-8.006-8.006-20.986.007-28.999 4.006-4.006 9.251-6.002 14.496-6.002s10.49 1.996 14.496 6.002 6.002 9.251 6.002 14.496-1.996 10.49-6.002 14.496-9.258 6.009-14.503 6.009z" fill="#e29a6c"/><g fill="#ce845c"><path d="m114.901 468.269c-4.312 5.187-8.858 10.184-13.629 14.955l-13.76 13.76c-10.009 10.009-23.128 15.013-36.255 15.013-13.112 0-26.231-5.004-36.24-15.013-3.81-3.81-6.884-8.064-9.251-12.602 7.386 3.846 15.509 5.762 23.638 5.762 12.15 0 24.308-4.291 33.982-12.872 0 0 0 0 .007-.007.823-.605 1.617-1.282 2.367-2.032.576-.576 1.107-1.18 1.603-1.807l12.056-12.056c4.771-4.771 9.317-9.768 13.629-14.955l121.206-145.987 7.343-7.241c8.013-7.969 20.965-7.955 28.956.036l21.853 21.853c-7.991-7.991-20.943-8.006-28.956-.036l-7.343 7.241z"/><path d="m376.019 353.452-14.503 14.503c-10.009 10.009-26.231 10.002-36.24-.007l-21.853-21.853c10.009 10.009 26.231 10.016 36.24.007l14.503-14.503z"/></g></g></svg>