<svg height="512" viewBox="0 0 64 64" width="512" xmlns="http://www.w3.org/2000/svg"><g id="Layer_11" data-name="Layer 11"><path d="m50 34v-7.513h-6v7.513" fill="#78a0d4"/><path d="m35 36v-34h-6v34a2 2 0 0 1 -2 2h-16a9 9 0 0 0 -9 9v15h6v-13a5 5 0 0 1 5-5h38a5 5 0 0 1 5 5v13h6v-15a9 9 0 0 0 -9-9h-16a2 2 0 0 1 -2-2z" fill="#c0dafc"/><circle cx="47" cy="19" fill="#3b5892" r="9"/><circle cx="47" cy="19" fill="#f2f2f2" r="5"/><path d="m11 38v-4a2 2 0 0 1 2-2h6a2 2 0 0 1 2 2v4" fill="#5e87ca"/><path d="m13 32v-6h6v6" fill="#78a0d4"/><path d="m18 26v-4a2 2 0 0 0 -2-2 2 2 0 0 0 -2 2v4" fill="#213d68"/><path d="m18 22h5a2 2 0 0 1 2 2 2 2 0 0 1 -2 2h-5" fill="#3b5892"/><path d="m14 22h-5a2 2 0 0 0 -2 2 2 2 0 0 0 2 2h5" fill="#3b5892"/><path d="m41 38v-3a1 1 0 0 1 1-1h10a1 1 0 0 1 1 1v3" fill="#5e87ca"/><path d="m20 10h-8a2 2 0 0 1 -2-2v-6h-6v8a6 6 0 0 0 6 6h10" fill="#c0dafc"/><path d="m29 18h-7a2 2 0 0 1 -2-2v-6a2 2 0 0 1 2-2h7" fill="#5e87ca"/><path d="m25 13v-5h-3a2 2 0 0 0 -2 2v4h4a1 1 0 0 0 1-1z" fill="#78a0d4"/><path d="m54 37.051v-2.051a2 2 0 0 0 -2-2h-1v-4.841a10 10 0 1 0 -8 0v4.841h-1a2 2 0 0 0 -2 2v2h-3a1 1 0 0 1 -1-1v-34a1 1 0 0 0 -1-1h-6a1 1 0 0 0 -1 1v5h-6a3 3 0 0 0 -2.816 2h-7.184a1 1 0 0 1 -1-1v-6a1 1 0 0 0 -1-1h-6a1 1 0 0 0 -1 1v8a7.008 7.008 0 0 0 7 7h9.184a3 3 0 0 0 2.816 2h6v17a1 1 0 0 1 -1 1h-5v-3a3 3 0 0 0 -2-2.816v-4.184h3a3 3 0 0 0 0-6h-4.184a2.982 2.982 0 0 0 -5.632 0h-4.184a3 3 0 0 0 0 6h3v4.184a3 3 0 0 0 -2 2.816v3.051a10.013 10.013 0 0 0 -9 9.949v15a1 1 0 0 0 1 1h6a1 1 0 0 0 1-1v-13a4 4 0 0 1 4-4h38a4 4 0 0 1 4 4v13a1 1 0 0 0 1 1h6a1 1 0 0 0 1-1v-15a10.013 10.013 0 0 0 -9-9.949zm-15-18.051a8 8 0 1 1 8 8 8.009 8.009 0 0 1 -8-8zm6 9.8a10 10 0 0 0 4 0v4.2h-4zm-3 6.2h10v2h-10zm-37-25v-7h4v5a3 3 0 0 0 3 3h7v4h-9a5.006 5.006 0 0 1 -5-5zm17 7a1 1 0 0 1 -1-1v-6a1 1 0 0 1 1-1h6v8zm2 7a1 1 0 0 1 -1 1h-4v-2h4a1 1 0 0 1 1 1zm-8-3a1 1 0 0 1 1 1v3h-2v-3a1 1 0 0 1 1-1zm-8 3a1 1 0 0 1 1-1h4v2h-4a1 1 0 0 1 -1-1zm10 3v4h-4v-4zm-5 6h6a1 1 0 0 1 1 1v3h-8v-3a1 1 0 0 1 1-1zm48 28h-4v-12a6.006 6.006 0 0 0 -6-6h-38a6.006 6.006 0 0 0 -6 6v12h-4v-14a8.009 8.009 0 0 1 8-8h16a3 3 0 0 0 3-3v-33h4v33a3 3 0 0 0 3 3h16a8.009 8.009 0 0 1 8 8z"/><path d="m53 19a6 6 0 1 0 -6 6 6.006 6.006 0 0 0 6-6zm-10 0a4 4 0 1 1 4 4 4 4 0 0 1 -4-4z"/></g></svg>