<?xml version="1.0"?>
<svg xmlns="http://www.w3.org/2000/svg" xmlns:xlink="http://www.w3.org/1999/xlink" xmlns:svgjs="http://svgjs.com/svgjs" version="1.1" width="512" height="512" x="0" y="0" viewBox="0 0 512 512" style="enable-background:new 0 0 512 512" xml:space="preserve" class=""><g><g xmlns="http://www.w3.org/2000/svg"><path d="m489.5 360.09h-55.181l9.556-54.196c.58-3.289-.156-6.605-2.071-9.34-.911-1.301-2.042-2.388-3.326-3.241l4.089-23.189c.708-4.015-.605-7.918-3.192-10.693l34.908-197.97c2.154-12.218-6.033-23.911-18.251-26.065-10.865-2.106-24 5.601-26.065 18.251l-13.868 78.647c-.719 4.079 2.005 7.969 6.084 8.688 4.076.719 7.969-2.004 8.688-6.084l13.868-78.647c.718-4.073 4.615-6.803 8.688-6.083 4.073.718 6.802 4.616 6.083 8.688l-34.47 195.484-14.772-2.605 14.508-82.279c.719-4.079-2.005-7.969-6.084-8.688-4.074-.717-7.969 2.004-8.688 6.084l-14.947 84.766c-3.379 1.723-5.948 4.94-6.656 8.955l-4.09 23.194c-4.677 1.139-8.486 4.936-9.374 9.972l-11.7 66.351h-78.835c-4.142 0-7.5 3.358-7.5 7.5s3.358 7.5 7.5 7.5h205.096c4.136 0 7.5 3.364 7.5 7.5v60c0 4.136-3.364 7.5-7.5 7.5h-467c-4.136 0-7.5-3.364-7.5-7.5v-60c0-4.136 3.364-7.5 7.5-7.5h226.33c4.142 0 7.5-3.358 7.5-7.5s-3.358-7.5-7.5-7.5h-99.303l-11.915-67.575c-.888-5.037-4.695-8.835-9.374-9.973l-4.09-23.193c-.526-2.536-2.571-6.958-6.657-8.964l-34.905-197.962c-1.734-10.931-13.472-20.635-26.064-18.251-10.931 1.735-20.636 13.472-18.251 26.065l34.907 197.97c-2.587 2.774-3.9 6.678-3.192 10.693l4.09 23.193c-4.006 2.67-6.286 7.541-5.398 12.578l9.772 55.42h-55.948c-12.407 0-22.5 10.093-22.5 22.5v60c0 12.407 10.093 22.5 22.5 22.5h7.5v17.504c0 6.893 5.607 12.5 12.5 12.5h48.542c4.142 0 7.5-3.358 7.5-7.5s-3.358-7.5-7.5-7.5h-46.042v-15.005h422v15.004h-340.851c-4.142 0-7.5 3.358-7.5 7.5s3.358 7.5 7.5 7.5h343.351c6.893 0 12.5-5.607 12.5-12.5v-17.504h7.5c12.407 0 22.5-10.093 22.5-22.5v-60c0-12.406-10.093-22.5-22.5-22.5zm-90.232-74.754 3.473-19.696 24.62 4.341-3.473 19.696zm-9.991 13.47 39.392 6.946-9.581 54.338h-40.617zm-300.614-10.353-3.473-19.696 24.62-4.341 3.473 19.696zm-34.38-236.425c1.149-1.641 2.868-2.736 4.841-3.084 3.053-.466 7.544 1.132 8.688 6.083l34.469 195.484-14.772 2.605-34.468-195.484c-.349-1.973.093-3.963 1.242-5.604zm29.598 252.5 39.392-6.946 11.022 62.508h-40.616z" fill="#6b1933" data-original="#000000" style="" class=""/><path d="m482 412.59c0-12.407-10.093-22.5-22.5-22.5s-22.5 10.093-22.5 22.5 10.093 22.5 22.5 22.5 22.5-10.093 22.5-22.5zm-30 0c0-4.136 3.364-7.5 7.5-7.5s7.5 3.364 7.5 7.5-3.364 7.5-7.5 7.5-7.5-3.364-7.5-7.5z" fill="#6b1933" data-original="#000000" style="" class=""/><path d="m422 412.59c0-12.407-10.093-22.5-22.5-22.5s-22.5 10.093-22.5 22.5 10.093 22.5 22.5 22.5 22.5-10.093 22.5-22.5zm-30 0c0-4.136 3.364-7.5 7.5-7.5s7.5 3.364 7.5 7.5-3.364 7.5-7.5 7.5-7.5-3.364-7.5-7.5z" fill="#6b1933" data-original="#000000" style="" class=""/><path d="m362 412.59c0-12.407-10.093-22.5-22.5-22.5s-22.5 10.093-22.5 22.5 10.093 22.5 22.5 22.5 22.5-10.093 22.5-22.5zm-30 0c0-4.136 3.364-7.5 7.5-7.5s7.5 3.364 7.5 7.5-3.364 7.5-7.5 7.5-7.5-3.364-7.5-7.5z" fill="#6b1933" data-original="#000000" style="" class=""/><path d="m30 412.59c0 12.407 10.093 22.5 22.5 22.5s22.5-10.093 22.5-22.5-10.093-22.5-22.5-22.5-22.5 10.094-22.5 22.5zm30 0c0 4.136-3.364 7.5-7.5 7.5s-7.5-3.364-7.5-7.5 3.364-7.5 7.5-7.5 7.5 3.365 7.5 7.5z" fill="#6b1933" data-original="#000000" style="" class=""/><path d="m90 412.59c0 12.407 10.093 22.5 22.5 22.5s22.5-10.093 22.5-22.5-10.093-22.5-22.5-22.5-22.5 10.094-22.5 22.5zm30 0c0 4.136-3.364 7.5-7.5 7.5s-7.5-3.364-7.5-7.5 3.364-7.5 7.5-7.5 7.5 3.365 7.5 7.5z" fill="#6b1933" data-original="#000000" style="" class=""/><path d="m169.5 412.404c0 4.142 3.358 7.5 7.5 7.5h98c4.142 0 7.5-3.358 7.5-7.5s-3.358-7.5-7.5-7.5h-98c-4.142 0-7.5 3.358-7.5 7.5z" fill="#6b1933" data-original="#000000" style="" class=""/><path d="m256 187.284c-15.164 0-27.5 12.336-27.5 27.5s12.336 27.5 27.5 27.5 27.5-12.336 27.5-27.5-12.336-27.5-27.5-27.5zm0 40c-6.893 0-12.5-5.607-12.5-12.5s5.607-12.5 12.5-12.5 12.5 5.607 12.5 12.5-5.607 12.5-12.5 12.5z" fill="#6b1933" data-original="#000000" style="" class=""/><path d="m324.596 175.351c6.482-10.578 3.15-24.458-7.428-30.941-37.73-23.12-84.605-23.121-122.336 0-10.578 6.482-13.91 20.362-7.428 30.94 5.872 9.711 19.595 14.19 30.941 7.428 23.227-14.234 52.084-14.233 75.311 0 9.259 6.2 24.736 3.204 30.94-7.427zm-12.79-7.837c-2.255 2.663-5.29 5.001-10.313 2.476-28.061-17.197-62.925-17.196-90.987 0-1.519 1.219-7.519 1.936-10.313-2.477-1.218-1.518-1.936-7.519 2.477-10.313 16.449-10.081 34.887-15.119 53.33-15.119 18.439 0 36.885 5.041 53.33 15.119 2.51 2.476 4.94 3.838 2.476 10.314z" fill="#6b1933" data-original="#000000" style="" class=""/><path d="m360.503 130.351c5.828-9.047 3.642-24.497-7.428-30.941-29.228-17.91-62.796-27.378-97.075-27.378s-67.847 9.467-97.076 27.378c-9.8 5.771-14.018 19.911-7.428 30.94 5.872 9.711 19.594 14.189 30.94 7.428 45.376-27.806 101.751-27.805 147.125 0 9.261 6.2 24.739 3.205 30.942-7.427zm-12.789-7.837c-2.255 2.663-5.29 5.002-10.313 2.476-50.21-30.768-112.592-30.768-162.802 0-1.519 1.218-7.518 1.936-10.313-2.477-2.161-3.526-1.05-8.152 2.477-10.313 26.867-16.465 57.725-25.168 89.237-25.168s62.37 8.703 89.238 25.167c3.526 2.162 4.637 6.788 2.476 10.315z" fill="#6b1933" data-original="#000000" style="" class=""/><path d="m146.528 92.779c67.525-41.379 151.418-41.378 218.943 0 9.26 6.199 24.737 3.203 30.94-7.428 5.828-9.047 3.642-24.497-7.428-30.941-40.039-24.535-86.024-37.505-132.983-37.505-20.003 0-40 2.366-59.438 7.034-4.028.967-6.509 5.016-5.542 9.043.967 4.028 5.018 6.507 9.044 5.542 18.292-4.392 37.111-6.619 55.936-6.619 44.192 0 87.467 12.205 125.146 35.294 2.51 2.477 4.94 3.838 2.476 10.314-2.254 2.662-5.291 5.002-10.313 2.476-72.359-44.34-162.259-44.341-234.618 0-3.524 2.161-8.152 1.05-10.314-2.476-1.218-1.518-1.936-7.519 2.476-10.313 11.695-7.167 24.084-13.363 36.822-18.418 3.85-1.528 5.733-5.887 4.205-9.737-1.527-3.85-5.89-5.734-9.737-4.205-13.536 5.371-26.7 11.956-39.127 19.571-9.8 5.771-14.018 19.911-7.428 30.94 6.482 10.577 20.362 13.91 30.94 7.428z" fill="#6b1933" data-original="#000000" style="" class=""/></g></g></svg>
