<?xml version="1.0" encoding="UTF-8"?>
<!DOCTYPE svg PUBLIC "-//W3C//DTD SVG 1.1//EN" "http://www.w3.org/Graphics/SVG/1.1/DTD/svg11.dtd">
<svg xmlns="http://www.w3.org/2000/svg" version="1.1" width="349px" height="127px" style="shape-rendering:geometricPrecision; text-rendering:geometricPrecision; image-rendering:optimizeQuality; fill-rule:evenodd; clip-rule:evenodd" xmlns:xlink="http://www.w3.org/1999/xlink">
<g><path style="opacity:0.964" fill="#4c476f" d="M 175.5,-0.5 C 189.5,-0.5 203.5,-0.5 217.5,-0.5C 243.322,3.53327 268.988,9.03327 294.5,16C 309.787,18.1953 325.12,19.8619 340.5,21C 341.766,21.3095 342.933,21.8095 344,22.5C 346.242,24.8698 347.742,27.5365 348.5,30.5C 348.5,35.5 348.5,40.5 348.5,45.5C 343.151,44.4614 338.651,45.7947 335,49.5C 334.501,54.8229 334.334,60.1563 334.5,65.5C 334.5,67.8333 334.5,70.1667 334.5,72.5C 334.5,75.1667 334.5,77.8333 334.5,80.5C 334.5,83.8333 334.5,87.1667 334.5,90.5C 333.505,78.3446 333.171,66.0113 333.5,53.5C 324.827,53.6664 316.16,53.4998 307.5,53C 295.672,40.1657 281.005,34.8323 263.5,37C 257.47,37.5889 251.804,39.2555 246.5,42C 243.118,42.8236 239.784,42.657 236.5,41.5C 240.896,38.3038 245.563,35.6371 250.5,33.5C 254.668,32.1644 258.502,30.1644 262,27.5C 264,24.5 264,21.5 262,18.5C 251.831,11.5561 240.664,7.38944 228.5,6C 229.581,7.71062 229.248,9.21062 227.5,10.5C 224.135,9.9604 220.802,9.29373 217.5,8.5C 204.283,5.94191 190.949,5.10857 177.5,6C 162.319,13.4195 147.652,21.5862 133.5,30.5C 131.088,30.6941 130.088,32.0274 130.5,34.5C 129.596,33.791 129.263,32.791 129.5,31.5C 126.223,31.2161 123.057,31.5495 120,32.5C 119.502,35.8168 119.335,39.1501 119.5,42.5C 109.052,43.5959 99.0523,42.0959 89.5,38C 77.0326,35.2662 65.0326,36.5996 53.5,42C 47.3188,42.8192 41.3188,42.6525 35.5,41.5C 59.4656,32.8123 84.1322,30.1457 109.5,33.5C 126.994,24.2539 144.327,14.7539 161.5,5C 166.159,2.84209 170.825,1.00876 175.5,-0.5 Z"/></g>
<g><path style="opacity:1" fill="#99d5b2" d="M 217.5,8.5 C 192.51,17.0522 167.51,25.3855 142.5,33.5C 140.143,33.6633 137.81,33.4966 135.5,33C 134.619,32.2917 133.953,31.4584 133.5,30.5C 147.652,21.5862 162.319,13.4195 177.5,6C 190.949,5.10857 204.283,5.94191 217.5,8.5 Z"/></g>
<g><path style="opacity:1" fill="#7fc3b0" d="M 217.5,8.5 C 220.802,9.29373 224.135,9.9604 227.5,10.5C 231.501,11.5003 235.501,12.5003 239.5,13.5C 220.606,20.4654 201.273,26.632 181.5,32C 180.944,32.3826 180.611,32.8826 180.5,33.5C 167.833,33.5 155.167,33.5 142.5,33.5C 167.51,25.3855 192.51,17.0522 217.5,8.5 Z"/></g>
<g><path style="opacity:1" fill="#6fb6af" d="M 239.5,13.5 C 242.167,14.5 244.833,15.5 247.5,16.5C 230.779,22.4613 213.779,27.9613 196.5,33C 191.177,33.4994 185.844,33.666 180.5,33.5C 180.611,32.8826 180.944,32.3826 181.5,32C 201.273,26.632 220.606,20.4654 239.5,13.5 Z"/></g>
<g><path style="opacity:1" fill="#61a7ab" d="M 247.5,16.5 C 250.473,17.9867 253.473,19.4867 256.5,21C 257.517,22.0495 257.684,23.2161 257,24.5C 248.465,28.4563 239.632,31.623 230.5,34C 199.502,34.5 168.502,34.6666 137.5,34.5C 135.167,34.5 132.833,34.5 130.5,34.5C 130.088,32.0274 131.088,30.6941 133.5,30.5C 133.953,31.4584 134.619,32.2917 135.5,33C 137.81,33.4966 140.143,33.6633 142.5,33.5C 155.167,33.5 167.833,33.5 180.5,33.5C 185.844,33.666 191.177,33.4994 196.5,33C 213.779,27.9613 230.779,22.4613 247.5,16.5 Z"/></g>
<g><path style="opacity:1" fill="#3d3a61" d="M 250.5,33.5 C 245.563,35.6371 240.896,38.3038 236.5,41.5C 239.784,42.657 243.118,42.8236 246.5,42C 251.804,39.2555 257.47,37.5889 263.5,37C 281.005,34.8323 295.672,40.1657 307.5,53C 316.16,53.4998 324.827,53.6664 333.5,53.5C 333.171,66.0113 333.505,78.3446 334.5,90.5C 332.422,93.0507 329.756,94.884 326.5,96C 319.908,97.3288 313.241,97.8288 306.5,97.5C 309.32,79.1526 302.987,65.1526 287.5,55.5C 270.172,47.4159 254.672,50.0826 241,63.5C 237.099,68.6356 234.266,74.3023 232.5,80.5C 193.167,80.5 153.833,80.5 114.5,80.5C 112.701,73.5607 109.367,67.5607 104.5,62.5C 103.167,61.1667 101.833,59.8333 100.5,58.5C 106.653,57.3467 112.986,57.18 119.5,58C 122.046,61.59 124.213,65.4234 126,69.5C 133.557,72.2988 135.391,70.2988 131.5,63.5C 133.272,60.7229 135.105,60.3896 137,62.5C 137.383,61.944 137.883,61.6107 138.5,61.5C 139.848,62.6006 141.348,63.6006 143,64.5C 143.189,62.205 144.523,60.205 147,58.5C 150.228,60.3193 153.228,60.3193 156,58.5C 156.772,58.6448 157.439,58.9781 158,59.5C 158.745,58.0096 159.912,57.0096 161.5,56.5C 163.428,57.7674 165.261,58.4341 167,58.5C 167.043,55.7828 168.043,55.1161 170,56.5C 172.899,54.9765 175.899,53.6431 179,52.5C 181.222,54.2781 183.388,54.4447 185.5,53C 183.405,52.4444 183.238,51.9444 185,51.5C 186.422,52.2052 187.755,52.5385 189,52.5C 189.667,51.8333 190.333,51.1667 191,50.5C 192.569,50.8472 194.402,51.0139 196.5,51C 193.972,50.3311 193.972,49.4978 196.5,48.5C 197.425,49.6405 198.259,49.6405 199,48.5C 200.583,50.9928 202.083,50.8262 203.5,48C 201.32,45.5823 200.987,42.9156 202.5,40C 207.833,39.3333 213.167,39.3333 218.5,40C 220.01,43.1605 221.843,43.3272 224,40.5C 224.772,40.6448 225.439,40.9781 226,41.5C 228.284,39.7756 230.618,38.1089 233,36.5C 234,36.8333 235,37.1667 236,37.5C 236.918,35.3676 238.251,34.701 240,35.5C 242.718,34.0751 245.552,32.7418 248.5,31.5C 249.713,31.7472 250.38,32.4138 250.5,33.5 Z"/></g>
<g><path style="opacity:1" fill="#413e65" d="M 250.5,33.5 C 250.38,32.4138 249.713,31.7472 248.5,31.5C 245.552,32.7418 242.718,34.0751 240,35.5C 238.251,34.701 236.918,35.3676 236,37.5C 235,37.1667 234,36.8333 233,36.5C 230.618,38.1089 228.284,39.7756 226,41.5C 225.439,40.9781 224.772,40.6448 224,40.5C 221.843,43.3272 220.01,43.1605 218.5,40C 213.167,39.3333 207.833,39.3333 202.5,40C 200.987,42.9156 201.32,45.5823 203.5,48C 202.083,50.8262 200.583,50.9928 199,48.5C 198.259,49.6405 197.425,49.6405 196.5,48.5C 193.972,49.4978 193.972,50.3311 196.5,51C 194.402,51.0139 192.569,50.8472 191,50.5C 190.333,51.1667 189.667,51.8333 189,52.5C 187.755,52.5385 186.422,52.2052 185,51.5C 183.238,51.9444 183.405,52.4444 185.5,53C 183.388,54.4447 181.222,54.2781 179,52.5C 175.899,53.6431 172.899,54.9765 170,56.5C 168.043,55.1161 167.043,55.7828 167,58.5C 165.261,58.4341 163.428,57.7674 161.5,56.5C 159.912,57.0096 158.745,58.0096 158,59.5C 157.439,58.9781 156.772,58.6448 156,58.5C 153.228,60.3193 150.228,60.3193 147,58.5C 144.523,60.205 143.189,62.205 143,64.5C 141.348,63.6006 139.848,62.6006 138.5,61.5C 137.046,58.8773 135.046,56.7106 132.5,55C 137.145,51.687 141.479,48.0203 145.5,44C 142.998,40.6675 140.332,37.5008 137.5,34.5C 168.502,34.6666 199.502,34.5 230.5,34C 239.632,31.623 248.465,28.4563 257,24.5C 257.684,23.2161 257.517,22.0495 256.5,21C 253.473,19.4867 250.473,17.9867 247.5,16.5C 244.833,15.5 242.167,14.5 239.5,13.5C 235.501,12.5003 231.501,11.5003 227.5,10.5C 229.248,9.21062 229.581,7.71062 228.5,6C 240.664,7.38944 251.831,11.5561 262,18.5C 264,21.5 264,24.5 262,27.5C 258.502,30.1644 254.668,32.1644 250.5,33.5 Z"/></g>
<g><path style="opacity:1" fill="#413d64" d="M 130.5,34.5 C 132.833,34.5 135.167,34.5 137.5,34.5C 140.332,37.5008 142.998,40.6675 145.5,44C 141.479,48.0203 137.145,51.687 132.5,55C 135.046,56.7106 137.046,58.8773 138.5,61.5C 137.883,61.6107 137.383,61.944 137,62.5C 135.105,60.3896 133.272,60.7229 131.5,63.5C 135.391,70.2988 133.557,72.2988 126,69.5C 124.213,65.4234 122.046,61.59 119.5,58C 112.986,57.18 106.653,57.3467 100.5,58.5C 81.4296,46.4241 63.9296,48.4241 48,64.5C 41.1062,73.7168 38.6062,84.0501 40.5,95.5C 40.5,96.1667 40.5,96.8333 40.5,97.5C 33.4921,97.6663 26.4921,97.4996 19.5,97C 13.8894,95.3861 9.38943,92.2194 6,87.5C 4.04455,83.2467 1.87789,79.2467 -0.5,75.5C -0.5,73.1667 -0.5,70.8333 -0.5,68.5C 4.86203,68.1164 9.86203,66.7831 14.5,64.5C 16.153,64.3404 17.4863,63.6737 18.5,62.5C 20.0269,62.573 21.0269,61.9063 21.5,60.5C 28.4862,56.3297 28.1529,53.3297 20.5,51.5C 18.1417,51.7529 15.8083,52.0862 13.5,52.5C 20.2366,47.7984 27.5699,44.1317 35.5,41.5C 41.3188,42.6525 47.3188,42.8192 53.5,42C 65.0326,36.5996 77.0326,35.2662 89.5,38C 99.0523,42.0959 109.052,43.5959 119.5,42.5C 119.335,39.1501 119.502,35.8168 120,32.5C 123.057,31.5495 126.223,31.2161 129.5,31.5C 129.263,32.791 129.596,33.791 130.5,34.5 Z"/></g>
<g><path style="opacity:1" fill="#ee315f" d="M 348.5,45.5 C 348.5,53.1667 348.5,60.8333 348.5,68.5C 348.167,68.5 347.833,68.5 347.5,68.5C 347.5,67.1667 347.5,65.8333 347.5,64.5C 346.5,64.5 345.5,64.5 344.5,64.5C 341.061,64.2529 337.728,64.5863 334.5,65.5C 334.334,60.1563 334.501,54.8229 335,49.5C 338.651,45.7947 343.151,44.4614 348.5,45.5 Z"/></g>
<g><path style="opacity:1" fill="#f6d74f" d="M 21.5,60.5 C 16.1563,60.666 10.8229,60.4994 5.5,60C 6.7101,58.9609 7.7101,57.7942 8.5,56.5C 9.94478,54.9373 11.6115,53.604 13.5,52.5C 15.8083,52.0862 18.1417,51.7529 20.5,51.5C 28.1529,53.3297 28.4862,56.3297 21.5,60.5 Z"/></g>
<g><path style="opacity:1" fill="#6f3e85" d="M 287.5,55.5 C 290.334,59.8345 292.667,64.5012 294.5,69.5C 294.167,69.8333 293.833,70.1667 293.5,70.5C 292.395,68.3886 290.729,67.0553 288.5,66.5C 281.667,59.4378 273.334,56.9378 263.5,59C 249.085,63.406 241.418,73.0727 240.5,88C 240.605,92.6377 241.105,97.1377 242,101.5C 237.834,97.8082 234.667,93.4749 232.5,88.5C 232.5,85.8333 232.5,83.1667 232.5,80.5C 234.266,74.3023 237.099,68.6356 241,63.5C 254.672,50.0826 270.172,47.4159 287.5,55.5 Z"/></g>
<g><path style="opacity:1" fill="#6e3e84" d="M 100.5,58.5 C 101.833,59.8333 103.167,61.1667 104.5,62.5C 105.022,65.5682 105.855,68.5682 107,71.5C 107.667,75.1667 107.667,78.8333 107,82.5C 104.902,73.9227 100.068,67.5894 92.5,63.5C 78.9394,55.6791 66.4394,57.3458 55,68.5C 47.4971,79.5162 46.4971,91.1828 52,103.5C 53.7932,106.295 55.9598,108.795 58.5,111C 50.2513,108.594 44.2513,103.427 40.5,95.5C 38.6062,84.0501 41.1062,73.7168 48,64.5C 63.9296,48.4241 81.4296,46.4241 100.5,58.5 Z"/></g>
<g><path style="opacity:1" fill="#f4b670" d="M 8.5,56.5 C 7.7101,57.7942 6.7101,58.9609 5.5,60C 10.8229,60.4994 16.1563,60.666 21.5,60.5C 21.0269,61.9063 20.0269,62.573 18.5,62.5C 12.9738,62.8214 7.64045,62.4881 2.5,61.5C 3.91083,59.086 5.91083,57.4194 8.5,56.5 Z"/></g>
<g><path style="opacity:1" fill="#f9a488" d="M 2.5,61.5 C 7.64045,62.4881 12.9738,62.8214 18.5,62.5C 17.4863,63.6737 16.153,64.3404 14.5,64.5C 9.96775,64.8182 5.63441,64.4849 1.5,63.5C 1.32842,62.5084 1.66175,61.8417 2.5,61.5 Z"/></g>
<g><path style="opacity:1" fill="#ec8a9b" d="M 1.5,63.5 C 5.63441,64.4849 9.96775,64.8182 14.5,64.5C 9.86203,66.7831 4.86203,68.1164 -0.5,68.5C -0.5,67.5 -0.5,66.5 -0.5,65.5C 0.166667,64.8333 0.833333,64.1667 1.5,63.5 Z"/></g>
<g><path style="opacity:1" fill="#ffd15c" d="M 344.5,64.5 C 341.571,67.6363 338.238,70.303 334.5,72.5C 334.5,70.1667 334.5,67.8333 334.5,65.5C 337.728,64.5863 341.061,64.2529 344.5,64.5 Z"/></g>
<g><path style="opacity:1" fill="#ffb17e" d="M 344.5,64.5 C 345.5,64.5 346.5,64.5 347.5,64.5C 347.5,65.8333 347.5,67.1667 347.5,68.5C 347.5,68.8333 347.5,69.1667 347.5,69.5C 344.029,72.1397 341.029,75.3064 338.5,79C 337.255,79.7914 335.922,80.2914 334.5,80.5C 334.5,77.8333 334.5,75.1667 334.5,72.5C 338.238,70.303 341.571,67.6363 344.5,64.5 Z"/></g>
<g><path style="opacity:0.995" fill="#41356f" d="M 287.5,55.5 C 302.987,65.1526 309.32,79.1526 306.5,97.5C 301.144,114.861 289.477,124.528 271.5,126.5C 270.5,126.5 269.5,126.5 268.5,126.5C 250.56,125.028 238.894,115.694 233.5,98.5C 233.007,96.1944 232.674,93.861 232.5,91.5C 232.5,90.5 232.5,89.5 232.5,88.5C 234.667,93.4749 237.834,97.8082 242,101.5C 241.105,97.1377 240.605,92.6377 240.5,88C 241.418,73.0727 249.085,63.406 263.5,59C 273.334,56.9378 281.667,59.4378 288.5,66.5C 290.729,67.0553 292.395,68.3886 293.5,70.5C 293.833,70.1667 294.167,69.8333 294.5,69.5C 292.667,64.5012 290.334,59.8345 287.5,55.5 Z"/></g>
<g><path style="opacity:1" fill="#4b496f" d="M 275.5,65.5 C 281.408,66.4604 286.075,69.4604 289.5,74.5C 288.675,75.3857 287.675,75.719 286.5,75.5C 284.345,75.628 282.345,75.128 280.5,74C 278.444,71.3859 276.777,68.5525 275.5,65.5 Z"/></g>
<g><path style="opacity:1" fill="#f38594" d="M 347.5,69.5 C 344.935,77.6374 340.602,84.6374 334.5,90.5C 334.5,87.1667 334.5,83.8333 334.5,80.5C 335.922,80.2914 337.255,79.7914 338.5,79C 341.029,75.3064 344.029,72.1397 347.5,69.5 Z"/></g>
<g><path style="opacity:0.997" fill="#40356e" d="M 92.5,63.5 C 100.068,67.5894 104.902,73.9227 107,82.5C 107.667,78.8333 107.667,75.1667 107,71.5C 105.855,68.5682 105.022,65.5682 104.5,62.5C 109.367,67.5607 112.701,73.5607 114.5,80.5C 114.5,82.1667 114.5,83.8333 114.5,85.5C 114.706,89.8982 114.373,94.2315 113.5,98.5C 108.106,115.694 96.4397,125.028 78.5,126.5C 77.5,126.5 76.5,126.5 75.5,126.5C 57.5225,124.528 45.8558,114.861 40.5,97.5C 40.5,96.8333 40.5,96.1667 40.5,95.5C 44.2513,103.427 50.2513,108.594 58.5,111C 55.9598,108.795 53.7932,106.295 52,103.5C 46.4971,91.1828 47.4971,79.5162 55,68.5C 66.4394,57.3458 78.9394,55.6791 92.5,63.5 Z"/></g>
<g><path style="opacity:1" fill="#4d4b72" d="M 84.5,85.5 C 84.9828,92.0155 81.9828,95.3488 75.5,95.5C 69.7484,91.7387 69.0818,87.2387 73.5,82C 78.1813,80.5189 81.8479,81.6856 84.5,85.5 Z"/></g>
<g><path style="opacity:1" fill="#4b4a6f" d="M 83.5,65.5 C 89.3468,66.8336 94.0134,70.0003 97.5,75C 93.9277,75.8471 90.5943,75.3471 87.5,73.5C 85.6418,71.1169 84.3084,68.4502 83.5,65.5 Z"/></g>
<g><path style="opacity:1" fill="#4c4971" d="M 276.5,85.5 C 276.983,92.0155 273.983,95.3488 267.5,95.5C 261.692,91.8172 261.026,87.3172 265.5,82C 270.181,80.5189 273.848,81.6856 276.5,85.5 Z"/></g>
<g><path style="opacity:1" fill="#49456c" d="M 114.5,80.5 C 153.833,80.5 193.167,80.5 232.5,80.5C 232.5,83.1667 232.5,85.8333 232.5,88.5C 232.5,89.5 232.5,90.5 232.5,91.5C 193.573,90.5064 154.573,90.173 115.5,90.5C 115.784,88.5853 115.451,86.9187 114.5,85.5C 114.5,83.8333 114.5,82.1667 114.5,80.5 Z"/></g>
<g><path style="opacity:1" fill="#bdecf4" d="M 83.5,60.5 C 82.506,62.3344 82.506,64.0011 83.5,65.5C 84.3084,68.4502 85.6418,71.1169 87.5,73.5C 87.2965,75.3904 87.9632,76.8904 89.5,78C 93.1704,78.5482 96.8371,79.0482 100.5,79.5C 98.3714,84.1502 95.2048,88.1502 91,91.5C 88.9633,89.2941 86.7966,87.2941 84.5,85.5C 81.8479,81.6856 78.1813,80.5189 73.5,82C 69.0818,87.2387 69.7484,91.7387 75.5,95.5C 77.6281,98.1303 79.9614,100.63 82.5,103C 75.7172,102.283 69.5506,104.117 64,108.5C 61.986,105.47 60.8194,102.137 60.5,98.5C 60.6621,96.4727 60.4955,94.4727 60,92.5C 58,90.5 56,88.5 54,86.5C 53.5045,88.4727 53.3379,90.4727 53.5,92.5C 52.5,93.1667 51.5,93.8333 50.5,94.5C 48.4521,70.8771 59.4521,59.5438 83.5,60.5 Z"/></g>
<g><path style="opacity:1" fill="#4d4a71" d="M 67.5,65.5 C 68.8734,65.3433 70.2068,65.51 71.5,66C 70.0836,68.8349 68.417,71.5015 66.5,74C 63.964,74.3392 61.464,74.8392 59,75.5C 58.5,75.1667 58,74.8333 57.5,74.5C 60.4879,71.0242 63.8212,68.0242 67.5,65.5 Z"/></g>
<g><path style="opacity:1" fill="#bdebf3" d="M 275.5,60.5 C 274.506,62.3344 274.506,64.0011 275.5,65.5C 276.777,68.5525 278.444,71.3859 280.5,74C 282.345,75.128 284.345,75.628 286.5,75.5C 286.423,76.7498 285.756,77.5831 284.5,78C 287.117,78.8215 289.784,79.3215 292.5,79.5C 290.371,84.1502 287.205,88.1502 283,91.5C 280.963,89.2941 278.797,87.2941 276.5,85.5C 273.848,81.6856 270.181,80.5189 265.5,82C 261.026,87.3172 261.692,91.8172 267.5,95.5C 269.628,98.1303 271.961,100.63 274.5,103C 266.392,102.871 259.059,105.371 252.5,110.5C 240.489,99.6136 238.322,86.947 246,72.5C 253.341,62.3316 263.174,58.3316 275.5,60.5 Z"/></g>
<g><path style="opacity:1" fill="#4f4d73" d="M 259.5,65.5 C 260.978,65.238 262.311,65.5713 263.5,66.5C 261.447,73.6729 256.781,76.5062 249.5,75C 252.25,71.142 255.584,67.9753 259.5,65.5 Z"/></g>
<g><path style="opacity:1" fill="#4b496f" d="M 60.5,98.5 C 59.6981,99.9516 59.1981,101.618 59,103.5C 56.2941,100.181 54.4607,96.5147 53.5,92.5C 53.3379,90.4727 53.5045,88.4727 54,86.5C 56,88.5 58,90.5 60,92.5C 60.4955,94.4727 60.6621,96.4727 60.5,98.5 Z"/></g>
<g><path style="opacity:1" fill="#4a486e" d="M 245.5,86.5 C 252.565,90.362 254.398,96.0287 251,103.5C 247.062,98.5178 245.228,92.8512 245.5,86.5 Z"/></g>
<g><path style="opacity:1" fill="#3d3b61" d="M 114.5,85.5 C 115.451,86.9187 115.784,88.5853 115.5,90.5C 154.573,90.173 193.573,90.5064 232.5,91.5C 232.674,93.861 233.007,96.1944 233.5,98.5C 193.5,98.5 153.5,98.5 113.5,98.5C 114.373,94.2315 114.706,89.8982 114.5,85.5 Z"/></g>
<g><path style="opacity:1" fill="#aadee9" d="M 83.5,60.5 C 86.5431,61.3448 89.5431,62.3448 92.5,63.5C 104.795,72.8879 108.295,84.8879 103,99.5C 95.5344,113.48 84.0344,118.647 68.5,115C 58.7116,111.385 52.7116,104.552 50.5,94.5C 51.5,93.8333 52.5,93.1667 53.5,92.5C 54.4607,96.5147 56.2941,100.181 59,103.5C 59.1981,101.618 59.6981,99.9516 60.5,98.5C 60.8194,102.137 61.986,105.47 64,108.5C 69.5506,104.117 75.7172,102.283 82.5,103C 79.9614,100.63 77.6281,98.1303 75.5,95.5C 81.9828,95.3488 84.9828,92.0155 84.5,85.5C 86.7966,87.2941 88.9633,89.2941 91,91.5C 95.2048,88.1502 98.3714,84.1502 100.5,79.5C 96.8371,79.0482 93.1704,78.5482 89.5,78C 87.9632,76.8904 87.2965,75.3904 87.5,73.5C 90.5943,75.3471 93.9277,75.8471 97.5,75C 94.0134,70.0003 89.3468,66.8336 83.5,65.5C 82.506,64.0011 82.506,62.3344 83.5,60.5 Z"/></g>
<g><path style="opacity:1" fill="#45476c" d="M 100.5,86.5 C 101.822,92.7326 100.322,98.3993 96,103.5C 94.7235,99.9031 94.3901,96.2364 95,92.5C 97.0396,90.6298 98.8729,88.6298 100.5,86.5 Z"/></g>
<g><path style="opacity:1" fill="#a8dee8" d="M 275.5,60.5 C 280.24,61.7043 284.573,63.7043 288.5,66.5C 301.043,81.9407 300.376,96.774 286.5,111C 274.931,118.402 263.598,118.235 252.5,110.5C 259.059,105.371 266.392,102.871 274.5,103C 271.961,100.63 269.628,98.1303 267.5,95.5C 273.983,95.3488 276.983,92.0155 276.5,85.5C 278.797,87.2941 280.963,89.2941 283,91.5C 287.205,88.1502 290.371,84.1502 292.5,79.5C 289.784,79.3215 287.117,78.8215 284.5,78C 285.756,77.5831 286.423,76.7498 286.5,75.5C 287.675,75.719 288.675,75.3857 289.5,74.5C 286.075,69.4604 281.408,66.4604 275.5,65.5C 274.506,64.0011 274.506,62.3344 275.5,60.5 Z"/></g>
<g><path style="opacity:1" fill="#45476c" d="M 292.5,86.5 C 293.822,92.7326 292.322,98.3993 288,103.5C 286.894,99.8779 286.561,96.2113 287,92.5C 289.04,90.6298 290.873,88.6298 292.5,86.5 Z"/></g>
<g><path style="opacity:1" fill="#484a6e" d="M 74.5,106.5 C 78.9112,106.203 82.9112,107.369 86.5,110C 80.4353,113.284 74.4353,113.284 68.5,110C 70.7274,109.059 72.7274,107.892 74.5,106.5 Z"/></g>
<g><path style="opacity:1" fill="#484a6e" d="M 266.5,106.5 C 270.911,106.203 274.911,107.369 278.5,110C 272.528,113.277 266.528,113.277 260.5,110C 262.727,109.059 264.727,107.892 266.5,106.5 Z"/></g>
</svg>
