<svg id="sport-car" xmlns="http://www.w3.org/2000/svg" xmlns:xlink="http://www.w3.org/1999/xlink" width="348.135" height="126.146" viewBox="0 0 348.135 126.146">
  <defs>
    <linearGradient id="linear-gradient" x1="0.5" y1="0.266" x2="0.5" y2="0.848" gradientUnits="objectBoundingBox">
      <stop offset="0" stop-color="#4f4a72"/>
      <stop offset="1" stop-color="#3b395f"/>
    </linearGradient>
    <linearGradient id="linear-gradient-2" x1="-0.58" y1="0.117" x2="0.794" y2="0.604" gradientUnits="objectBoundingBox">
      <stop offset="0" stop-color="#ff4974"/>
      <stop offset="0.223" stop-color="#fb3f6c"/>
      <stop offset="0.608" stop-color="#f12357"/>
      <stop offset="1" stop-color="#e4003d"/>
    </linearGradient>
    <linearGradient id="linear-gradient-3" x1="-0.258" y1="0.034" x2="0.573" y2="0.545" gradientUnits="objectBoundingBox">
      <stop offset="0" stop-color="#ffe548"/>
      <stop offset="0.176" stop-color="#ffde50"/>
      <stop offset="0.445" stop-color="#ffca65"/>
      <stop offset="0.771" stop-color="#ffaa87"/>
      <stop offset="1" stop-color="#ff90a4"/>
    </linearGradient>
    <linearGradient id="linear-gradient-4" x1="0.5" y1="-0.276" x2="0.5" y2="0.913" gradientUnits="objectBoundingBox">
      <stop offset="0" stop-color="#3b395f" stop-opacity="0"/>
      <stop offset="1" stop-color="#3b395f"/>
    </linearGradient>
    <linearGradient id="linear-gradient-6" x1="0.5" y1="0.188" x2="0.5" y2="0.987" xlink:href="#linear-gradient"/>
    <radialGradient id="radial-gradient" cx="0.43" cy="0.356" r="0.621" gradientTransform="translate(0)" gradientUnits="objectBoundingBox">
      <stop offset="0" stop-color="#a34a9e"/>
      <stop offset="0.155" stop-color="#9b489a"/>
      <stop offset="0.402" stop-color="#84438f"/>
      <stop offset="0.707" stop-color="#5e3b7d"/>
      <stop offset="1" stop-color="#343168"/>
    </radialGradient>
    <linearGradient id="linear-gradient-7" x1="3.172" y1="-26.119" x2="4.233" y2="-25.058" gradientUnits="objectBoundingBox">
      <stop offset="0" stop-color="#a34a9e"/>
      <stop offset="1" stop-color="#343168"/>
    </linearGradient>
    <linearGradient id="linear-gradient-8" x1="-0.072" y1="-0.072" x2="0.988" y2="0.988" gradientUnits="objectBoundingBox">
      <stop offset="0" stop-color="#d4f7ff"/>
      <stop offset="1" stop-color="#a2e3e9"/>
    </linearGradient>
    <linearGradient id="linear-gradient-9" x1="-0.072" y1="-0.072" x2="0.988" y2="0.988" xlink:href="#linear-gradient"/>
    <linearGradient id="linear-gradient-10" x1="0.137" y1="0.195" x2="0.784" y2="0.869" xlink:href="#linear-gradient-8"/>
    <linearGradient id="linear-gradient-11" x1="0.966" y1="1.073" x2="-0.188" y2="-0.136" xlink:href="#linear-gradient-8"/>
    <linearGradient id="linear-gradient-12" x1="0.949" y1="0.949" x2="-0.133" y2="-0.133" gradientUnits="objectBoundingBox">
      <stop offset="0" stop-color="#a2e3e9" stop-opacity="0"/>
      <stop offset="1" stop-color="#518cd2"/>
    </linearGradient>
    <linearGradient id="linear-gradient-13" x1="0.396" y1="0.396" x2="0.924" y2="0.924" xlink:href="#linear-gradient"/>
    <radialGradient id="radial-gradient-2" cx="0.43" cy="0.356" r="0.621" xlink:href="#radial-gradient"/>
    <linearGradient id="linear-gradient-14" x1="-3.313" y1="-26.119" x2="-2.253" y2="-25.058" xlink:href="#linear-gradient-7"/>
    <linearGradient id="linear-gradient-21" x1="0.421" y1="0.072" x2="0.656" y2="0.948" xlink:href="#linear-gradient-4"/>
    <linearGradient id="linear-gradient-22" x1="0.421" y1="-0.352" x2="0.562" y2="1.684" gradientUnits="objectBoundingBox">
      <stop offset="0" stop-color="#c4f8b6"/>
      <stop offset="1" stop-color="#3b8eac"/>
    </linearGradient>
    <linearGradient id="linear-gradient-23" x1="-3.508" y1="-87.282" x2="-3.459" y2="-86.379" xlink:href="#linear-gradient"/>
    <linearGradient id="linear-gradient-24" x1="0.5" y1="0.266" x2="0.5" y2="0.848" xlink:href="#linear-gradient-3"/>
    <linearGradient id="linear-gradient-25" x1="0.346" y1="0.461" x2="-0.831" y2="-0.289" gradientUnits="objectBoundingBox">
      <stop offset="0" stop-color="#a34a9e" stop-opacity="0"/>
      <stop offset="1" stop-color="#343168"/>
    </linearGradient>
    <linearGradient id="linear-gradient-26" x1="0.5" y1="0.029" x2="0.5" y2="0.87" xlink:href="#linear-gradient"/>
  </defs>
  <path id="Path_455" data-name="Path 455" d="M336.915,179.186c-18.766-.539-37.477-2.293-55.668-6.937l-28.87-7.37a211.766,211.766,0,0,0-52.385-6.581H184.228a40.016,40.016,0,0,0-19.091,4.848l-53.747,29.18q-2.434-.182-4.927-.372c-57.352-4.36-88.715,15.534-101.858,27.122a13.562,13.562,0,0,0-3.09,16.409l4.4,8.495a21.912,21.912,0,0,0,19.46,11.841H318.158A24.655,24.655,0,0,0,339.025,244.3l6.853-10.891a14.7,14.7,0,0,0,2.257-7.827v-34.84a11.557,11.557,0,0,0-11.22-11.553Z" transform="translate(0 -158.298)" fill="url(#linear-gradient)"/>
  <path id="Path_456" data-name="Path 456" d="M490.849,223.838v21.323a14.687,14.687,0,0,1-2.258,7.832l-6.85,10.889a24.461,24.461,0,0,1-4.151,4.992V231.06a7.219,7.219,0,0,1,7.215-7.222Z" transform="translate(-142.716 -177.883)" fill="url(#linear-gradient-2)"/>
  <path id="Path_457" data-name="Path 457" d="M490.849,251.008v2.272a14.686,14.686,0,0,1-2.258,7.832L481.741,272a24.46,24.46,0,0,1-4.151,4.993V252.936a1.936,1.936,0,0,1,1.928-1.928Z" transform="translate(-142.716 -186.002)" fill="url(#linear-gradient-3)"/>
  <path id="Path_458" data-name="Path 458" d="M140.934,262.594H37.16a51.887,51.887,0,1,1,103.774,0Z" transform="translate(-11.104 -173.959)" fill="url(#linear-gradient-4)"/>
  <path id="Path_459" data-name="Path 459" d="M414.954,262.594H311.18a51.659,51.659,0,0,1,12.278-33.516,16.688,16.688,0,0,1,1.921-2.3,17.366,17.366,0,0,1,1.3-1.178,51.772,51.772,0,0,1,26.771-14,51.925,51.925,0,0,1,61.5,51Z" transform="translate(-92.988 -173.959)" fill="url(#linear-gradient-4)"/>
  <path id="Path_460" data-name="Path 460" d="M73.794,273.6h242.6v17.549H73.794Z" transform="translate(-22.051 -192.753)" fill="url(#linear-gradient-6)"/>
  <ellipse id="Ellipse_46" data-name="Ellipse 46" cx="37.509" cy="37.509" rx="37.509" ry="37.509" transform="translate(40.434 51.129)" fill="url(#radial-gradient)"/>
  <ellipse id="Ellipse_47" data-name="Ellipse 47" cx="29.625" cy="29.625" rx="29.625" ry="29.625" transform="translate(48.318 59.013)" fill="url(#linear-gradient-7)"/>
  <ellipse id="Ellipse_48" data-name="Ellipse 48" cx="28.19" cy="28.19" rx="28.19" ry="28.19" transform="translate(49.752 60.448)" fill="url(#linear-gradient-8)"/>
  <ellipse id="Ellipse_49" data-name="Ellipse 49" cx="24.192" cy="24.192" rx="24.192" ry="24.192" transform="translate(53.75 64.446)" fill="url(#linear-gradient-9)"/>
  <path id="Path_461" data-name="Path 461" d="M104.074,247.441l4.526,9.171a4.906,4.906,0,0,0,3.694,2.684l10.121,1.471a4.906,4.906,0,0,1,2.719,8.369l-7.324,7.139a4.9,4.9,0,0,0-1.411,4.342l1.729,10.08a4.906,4.906,0,0,1-7.118,5.172l-9.053-4.76a4.9,4.9,0,0,0-4.566,0l-9.053,4.76a4.906,4.906,0,0,1-7.118-5.172l1.729-10.08a4.906,4.906,0,0,0-1.411-4.342l-7.324-7.139a4.906,4.906,0,0,1,2.719-8.369L87.056,259.3a4.906,4.906,0,0,0,3.694-2.684l4.526-9.171A4.906,4.906,0,0,1,104.074,247.441Z" transform="translate(-21.733 -184.119)" fill="url(#linear-gradient-10)"/>
  <path id="Path_462" data-name="Path 462" d="M114.788,294.431a1.373,1.373,0,0,1-.652-.172l-9.053-4.76a8.41,8.41,0,0,0-7.829,0L88.2,294.259a1.376,1.376,0,0,1-.653.172,1.449,1.449,0,0,1-1.088-.526,1.322,1.322,0,0,1-.291-1.123L87.9,282.7a8.412,8.412,0,0,0-2.419-7.446l-7.324-7.139a1.4,1.4,0,0,1,.776-2.388l10.121-1.471a8.413,8.413,0,0,0,6.334-4.6l4.527-9.172a1.4,1.4,0,0,1,2.511,0l4.527,9.172a8.411,8.411,0,0,0,6.334,4.6l10.121,1.471a1.4,1.4,0,0,1,.776,2.388l-7.324,7.139a8.412,8.412,0,0,0-2.419,7.446l1.729,10.08a1.323,1.323,0,0,1-.29,1.122,1.454,1.454,0,0,1-1.09.527Z" transform="translate(-23.226 -185.612)" fill="url(#linear-gradient-11)"/>
  <path id="Path_463" data-name="Path 463" d="M132.438,295.852a28.255,28.255,0,0,1-10.132,10.139L103.36,287.052A7.186,7.186,0,1,1,113.5,276.913Z" transform="translate(-30.151 -193.008)" fill="url(#linear-gradient-12)"/>
  <ellipse id="Ellipse_50" data-name="Ellipse 50" cx="7.191" cy="7.191" rx="7.191" ry="7.191" transform="translate(70.751 81.446)" fill="url(#linear-gradient-13)"/>
  <ellipse id="Ellipse_51" data-name="Ellipse 51" cx="37.509" cy="37.509" rx="37.509" ry="37.509" transform="translate(232.57 51.129)" fill="url(#radial-gradient-2)"/>
  <ellipse id="Ellipse_52" data-name="Ellipse 52" cx="29.625" cy="29.625" rx="29.625" ry="29.625" transform="translate(240.454 59.013)" fill="url(#linear-gradient-14)"/>
  <ellipse id="Ellipse_53" data-name="Ellipse 53" cx="28.191" cy="28.191" rx="28.191" ry="28.191" transform="translate(241.888 60.447)" fill="url(#linear-gradient-8)"/>
  <ellipse id="Ellipse_54" data-name="Ellipse 54" cx="24.192" cy="24.192" rx="24.192" ry="24.192" transform="translate(245.887 64.446)" fill="url(#linear-gradient-9)"/>
  <path id="Path_464" data-name="Path 464" d="M378.1,247.441l4.526,9.171a4.906,4.906,0,0,0,3.694,2.684l10.122,1.471a4.906,4.906,0,0,1,2.719,8.369l-7.324,7.139a4.9,4.9,0,0,0-1.411,4.342l1.729,10.08a4.906,4.906,0,0,1-7.119,5.172l-9.053-4.76a4.9,4.9,0,0,0-4.566,0l-9.053,4.76a4.906,4.906,0,0,1-7.118-5.172l1.729-10.08a4.907,4.907,0,0,0-1.411-4.342l-7.324-7.139a4.906,4.906,0,0,1,2.719-8.369l10.121-1.471a4.906,4.906,0,0,0,3.694-2.684l4.526-9.171A4.906,4.906,0,0,1,378.1,247.441Z" transform="translate(-103.618 -184.119)" fill="url(#linear-gradient-10)"/>
  <path id="Path_465" data-name="Path 465" d="M388.809,294.431a1.374,1.374,0,0,1-.652-.172L379.1,289.5a8.409,8.409,0,0,0-7.829,0l-9.053,4.759a1.376,1.376,0,0,1-.653.172,1.449,1.449,0,0,1-1.088-.526,1.319,1.319,0,0,1-.29-1.123l1.729-10.08a8.413,8.413,0,0,0-2.419-7.446l-7.324-7.139a1.4,1.4,0,0,1,.775-2.388l10.121-1.471a8.412,8.412,0,0,0,6.334-4.6l4.527-9.172a1.4,1.4,0,0,1,2.511,0l4.527,9.172a8.411,8.411,0,0,0,6.333,4.6l10.121,1.471a1.4,1.4,0,0,1,.776,2.388l-7.324,7.139a8.411,8.411,0,0,0-2.419,7.446l1.729,10.08a1.32,1.32,0,0,1-.291,1.122A1.453,1.453,0,0,1,388.809,294.431Z" transform="translate(-105.111 -185.612)" fill="url(#linear-gradient-11)"/>
  <path id="Path_466" data-name="Path 466" d="M406.459,295.852a28.254,28.254,0,0,1-10.132,10.139l-18.946-18.939a7.186,7.186,0,1,1,10.139-10.139Z" transform="translate(-112.035 -193.008)" fill="url(#linear-gradient-12)"/>
  <ellipse id="Ellipse_55" data-name="Ellipse 55" cx="7.191" cy="7.191" rx="7.191" ry="7.191" transform="translate(262.887 81.446)" fill="url(#linear-gradient-13)"/>
  <path id="Path_467" data-name="Path 467" d="M212.61,163.146l-53.747,29.18c13.259,7.034,19.646,25.566,22.188,35.423a8.5,8.5,0,0,0,8.237,6.378h62.36a9.648,9.648,0,0,0,8.693-5.461,75.738,75.738,0,0,1,40.965-37.79c1.876-.724,3.721-1.428,5.486-2.093a7.384,7.384,0,0,0,1.494-13.065c-23.038-15.056-73.015-17.419-73.015-17.419H231.7A40.015,40.015,0,0,0,212.61,163.146Z" transform="translate(-47.472 -158.298)" fill="url(#linear-gradient-21)"/>
  <path id="Path_468" data-name="Path 468" d="M312.431,182.8c-20.248-13.691-65.1-16.36-67.737-16.5h-3.313a32.474,32.474,0,0,0-15.864,4.168l-42.261,23.741a.673.673,0,0,0,.309,1.258H277.62a59.162,59.162,0,0,0,25.028-5.682q2-.931,4.05-1.752c1.827-.73,3.624-1.44,5.344-2.11a1.737,1.737,0,0,0,1.113-1.5A1.642,1.642,0,0,0,312.431,182.8Z" transform="translate(-54.66 -160.689)" fill="url(#linear-gradient-22)"/>
  <path id="Path_469" data-name="Path 469" d="M291.764,214.944h10.281a4.09,4.09,0,1,1,0,8.18H291.764a4.09,4.09,0,0,1,0-8.18Z" transform="translate(-85.964 -175.225)" fill="url(#linear-gradient-23)"/>
  <path id="Path_470" data-name="Path 470" d="M25.81,238.677a3.709,3.709,0,0,0-3.123-6.261c-2.568.321-5.4.758-8.221,1.35a89.74,89.74,0,0,0-9.779,7.449,13.565,13.565,0,0,0-4.412,7.961l5.921-.728A32.867,32.867,0,0,0,25.81,238.677Z" transform="translate(-0.082 -180.437)" fill="url(#linear-gradient-24)"/>
  <path id="Path_471" data-name="Path 471" d="M181.55,198.025a2.329,2.329,0,0,0-2.218-1.637,8.686,8.686,0,0,0-8.686,8.686v2.709A8.664,8.664,0,0,0,174,214.632l52.667,53.443h24.156Z" transform="translate(-50.993 -169.68)" fill="url(#linear-gradient-25)"/>
  <path id="Path_472" data-name="Path 472" d="M179.332,216.471a8.686,8.686,0,0,1-8.686-8.686v-2.709a8.686,8.686,0,0,1,8.686-8.686,2.336,2.336,0,0,1,2.336,2.336v15.409A2.336,2.336,0,0,1,179.332,216.471Z" transform="translate(-50.993 -169.681)" fill="url(#linear-gradient-26)"/>
</svg>
