<?xml version="1.0" encoding="iso-8859-1"?>
<!-- Generator: Adobe Illustrator 19.0.0, SVG Export Plug-In . SVG Version: 6.00 Build 0)  -->
<svg version="1.1" id="Capa_1" xmlns="http://www.w3.org/2000/svg" xmlns:xlink="http://www.w3.org/1999/xlink" x="0px" y="0px"
	 viewBox="0 0 512 512" style="enable-background:new 0 0 512 512;" xml:space="preserve">
<g>
	<rect y="35.31" style="fill:#90BAE1;" width="512" height="441.379"/>
	<g>
		<polygon style="fill:#4482C3;" points="512,35.31 476.69,70.621 35.31,70.621 0,35.31 		"/>
		<polygon style="fill:#4482C3;" points="512,476.69 0,476.69 35.31,441.379 476.69,441.379 		"/>
	</g>
	<rect x="35.31" y="70.621" style="fill:#285680;" width="441.379" height="370.759"/>
	<g>
		<rect x="70.621" y="105.931" style="fill:#E6E7E8;" width="167.724" height="300.138"/>
		<rect x="273.655" y="105.931" style="fill:#E6E7E8;" width="167.724" height="300.138"/>
	</g>
	<g>
		<path style="fill:#FFFFFF;" d="M105.931,167.724c-3.57-0.001-6.788-2.152-8.154-5.45c-1.366-3.298-0.611-7.094,1.913-9.619
			L117.345,135c3.456-3.394,9.001-3.369,12.426,0.056s3.45,8.97,0.056,12.426l-17.655,17.655
			C110.519,166.796,108.273,167.727,105.931,167.724L105.931,167.724z"/>
		<path style="fill:#FFFFFF;" d="M105.931,220.69c-3.57-0.001-6.788-2.152-8.154-5.45c-1.366-3.298-0.611-7.094,1.913-9.619
			l61.793-61.793c3.456-3.394,9.001-3.369,12.426,0.056c3.425,3.425,3.45,8.97,0.056,12.426l-61.793,61.793
			C110.519,219.761,108.273,220.692,105.931,220.69z"/>
		<path style="fill:#FFFFFF;" d="M308.966,167.724c-3.57-0.001-6.788-2.152-8.154-5.45c-1.366-3.298-0.611-7.094,1.913-9.619
			L320.38,135c3.456-3.394,9.001-3.369,12.426,0.056c3.425,3.425,3.45,8.97,0.056,12.426l-17.655,17.655
			C313.553,166.796,311.307,167.727,308.966,167.724L308.966,167.724z"/>
		<path style="fill:#FFFFFF;" d="M308.966,220.69c-3.57-0.001-6.788-2.152-8.154-5.45c-1.366-3.298-0.611-7.094,1.913-9.619
			l61.793-61.793c3.456-3.394,9.001-3.369,12.426,0.056s3.45,8.97,0.056,12.426l-61.793,61.793
			C313.553,219.761,311.307,220.692,308.966,220.69L308.966,220.69z"/>
	</g>
</g>
<g>
</g>
<g>
</g>
<g>
</g>
<g>
</g>
<g>
</g>
<g>
</g>
<g>
</g>
<g>
</g>
<g>
</g>
<g>
</g>
<g>
</g>
<g>
</g>
<g>
</g>
<g>
</g>
<g>
</g>
</svg>
