<svg xmlns="http://www.w3.org/2000/svg" width="192.583" height="194.855" viewBox="0 0 192.583 194.855">
  <g id="Group_198" data-name="Group 198" transform="translate(-67.673 -386.35)">
    <path id="Path_258" data-name="Path 258" d="M30,16H42.839V99.453H30Z" transform="translate(127.545 417.558)" fill="#e2e7f6"/>
    <path id="Path_259" data-name="Path 259" d="M2,46H194.583V84.517H2Z" transform="translate(65.673 483.849)" fill="#b5b5b5"/>
    <path id="Path_260" data-name="Path 260" d="M181.744,65.258V46H2V71.678H175.325A6.419,6.419,0,0,0,181.744,65.258Z" transform="translate(65.673 483.849)" fill="#ccc"/>
    <path id="Path_261" data-name="Path 261" d="M4,54.839V42H23.258V54.839" transform="translate(70.093 475.011)" fill="#5e87ca"/>
    <path id="Path_262" data-name="Path 262" d="M5,121.55V6l12.839,9.629V121.55" transform="translate(72.303 395.461)" fill="#e2e7f6"/>
    <path id="Path_263" data-name="Path 263" d="M73.258,54.839V42H54V54.839" transform="translate(180.579 475.011)" fill="#5e87ca"/>
    <path id="Path_264" data-name="Path 264" d="M67.839,121.55V6L55,15.629V121.55" transform="translate(182.788 395.461)" fill="#e2e7f6"/>
    <path id="Path_265" data-name="Path 265" d="M6,58V70.839H172.905V58" transform="translate(74.512 510.366)" fill="#3b5892"/>
    <path id="Path_266" data-name="Path 266" d="M166.486,61.21V58H6v6.419H163.276A3.21,3.21,0,0,0,166.486,61.21Z" transform="translate(74.512 510.366)" fill="#4c6cb5"/>
    <path id="Path_267" data-name="Path 267" d="M28,54.839V48.419A6.419,6.419,0,0,1,34.419,42H47.258a6.419,6.419,0,0,1,6.419,6.419v6.419" transform="translate(123.126 475.011)" fill="#3b5892"/>
    <circle id="Ellipse_15" data-name="Ellipse 15" cx="12.839" cy="12.839" r="12.839" transform="translate(151.126 411.09)" fill="#b52f28"/>
    <path id="Path_268" data-name="Path 268" d="M40.839,9A12.82,12.82,0,0,0,30.308,29.157,12.82,12.82,0,0,0,48.16,11.308,12.765,12.765,0,0,0,40.839,9Z" transform="translate(123.126 402.09)" fill="#d23f34"/>
    <path id="Path_269" data-name="Path 269" d="M30.042,73.919a51.355,51.355,0,0,1,0-72.626l4.535,4.539a44.936,44.936,0,0,0,0,63.552Z" transform="translate(94.402 385.06)" fill="#ccc"/>
    <path id="Path_270" data-name="Path 270" d="M30.281,58.591a38.517,38.517,0,0,1,0-54.469l4.539,4.539a32.1,32.1,0,0,0,0,45.392Z" transform="translate(103.24 391.311)" fill="#ccc"/>
    <path id="Path_271" data-name="Path 271" d="M30.512,43.261a25.707,25.707,0,0,1,0-36.312l4.539,4.539a19.281,19.281,0,0,0,0,27.234Z" transform="translate(112.086 397.56)" fill="#ccc"/>
    <path id="Path_272" data-name="Path 272" d="M47.489,73.921,42.95,69.383a44.991,44.991,0,0,0,0-63.552l4.539-4.539a51.41,51.41,0,0,1,0,72.629Z" transform="translate(156.162 385.058)" fill="#ccc"/>
    <path id="Path_273" data-name="Path 273" d="M44.66,58.591l-4.539-4.539a32.1,32.1,0,0,0,0-45.392L44.66,4.122A38.517,38.517,0,0,1,44.66,58.591Z" transform="translate(149.91 391.311)" fill="#ccc"/>
    <path id="Path_274" data-name="Path 274" d="M41.832,43.262l-4.539-4.539a19.281,19.281,0,0,0,0-27.234L41.832,6.95a25.707,25.707,0,0,1,0,36.311Z" transform="translate(143.661 397.56)" fill="#ccc"/>
    <circle id="Ellipse_16" data-name="Ellipse 16" cx="6.419" cy="6.419" r="6.419" transform="translate(234.579 542.688)" fill="#5e87ca"/>
    <circle id="Ellipse_17" data-name="Ellipse 17" cx="6.419" cy="6.419" r="6.419" transform="translate(208.901 542.688)" fill="#5e87ca"/>
    <circle id="Ellipse_18" data-name="Ellipse 18" cx="6.419" cy="6.419" r="6.419" transform="translate(106.19 542.688)" fill="#5e87ca"/>
    <circle id="Ellipse_19" data-name="Ellipse 19" cx="6.419" cy="6.419" r="6.419" transform="translate(131.868 542.688)" fill="#5e87ca"/>
    <circle id="Ellipse_20" data-name="Ellipse 20" cx="6.419" cy="6.419" r="6.419" transform="translate(80.512 542.688)" fill="#5e87ca"/>
    <path id="Path_275" data-name="Path 275" d="M29,52H73.936v6.419H29Z" transform="translate(125.336 497.108)" fill="#f2f2f2"/>
  </g>
</svg>
