<?xml version="1.0" encoding="UTF-8"?>
<svg xmlns="http://www.w3.org/2000/svg" xmlns:xlink="http://www.w3.org/1999/xlink" width="512" height="512" viewBox="0 0 58 58" version="1.1"><!-- Generator: Sketch 51.3 (57544) - http://www.bohemiancoding.com/sketch --><title>012 - Smithing</title><desc>Created with Sketch.</desc><defs/><g id="Page-1" stroke="none" stroke-width="1" fill="none" fill-rule="evenodd"><g id="012---Smithing" transform="translate(-1.000000, -1.000000)" fill-rule="nonzero"><polygon id="Shape" fill="#7F8C8D" points="43.305 22.799 40.477 19.971 35.792 21.708 34.113 26.335 36.941 29.163 41.917 27.208"/><polygon id="Shape" fill="#7F8C8D" points="27.749 7.243 30.577 10.071 29.782 14.792 24.213 16.435 21.385 13.607 23.167 8.833"/><path d="M30.58,25.63 L17.85,38.36 L16.44,39.77 L14.31,41.89 L12.9,43.31 L10.78,45.43 L9.36,46.84 L7.24,48.96 C6.86486349,49.3355541 6.3558185,49.5465733 5.825,49.5465733 C5.2941815,49.5465733 4.78513651,49.3355541 4.41,48.96 L1.59,46.13 C1.21105619,45.7587124 0.997512215,45.2505213 0.997512215,44.72 C0.997512215,44.1894787 1.21105619,43.6812876 1.59,43.31 L24.92,19.97 L30.577,19.25 L30.58,25.63 Z" id="Shape" fill="#CB8252"/><path d="M34.113,26.335 L30.577,25.627 L24.92,19.971 L24.213,16.435 L30.577,10.071 L33.519,10.659 C33.9060728,10.7367878 34.2615852,10.9270669 34.541,11.206 L39.341,16.006 C39.6206622,16.2848736 39.8110669,16.6406207 39.888,17.028 L40.477,19.97 L34.113,26.335 Z" id="Shape" fill="#95A5A5"/><path d="M42.0993183,20.9571794 L44.0993183,20.9571794 C45.2038878,20.9571794 46.0993183,21.8526099 46.0993183,22.9571794 L46.0993183,33.9571794 C46.0993183,35.0617489 45.2038878,35.9571794 44.0993183,35.9571794 L42.0993183,35.9571794 C40.4424641,35.9571794 39.0993183,34.6140337 39.0993183,32.9571794 L39.0993183,23.9571794 C39.0993183,23.16153 39.4153888,22.3984682 39.977998,21.8358591 C40.5406071,21.27325 41.3036688,20.9571794 42.0993183,20.9571794 Z" id="Shape" fill="#95A5A5" transform="translate(42.599318, 28.457179) rotate(45.000000) translate(-42.599318, -28.457179) "/><path d="M21.5920959,0.44909808 L23.5920959,0.44909808 C24.6966654,0.44909808 25.5920959,1.34452858 25.5920959,2.44909808 L25.5920959,13.4490981 C25.5920959,14.5536676 24.6966654,15.4490981 23.5920959,15.4490981 L21.5920959,15.4490981 C19.9352417,15.4490981 18.5920959,14.1059523 18.5920959,12.4490981 L18.5920959,3.44909808 C18.5920959,1.79224383 19.9352417,0.44909808 21.5920959,0.44909808 Z" id="Shape" fill="#95A5A5" transform="translate(22.092096, 7.949098) rotate(-135.000000) translate(-22.092096, -7.949098) "/><path d="M10.78,45.43 L9.36,46.84 L6.54,44.01 C6.2002232,43.6132397 6.22306773,43.0218058 6.59243678,42.6524368 C6.96180583,42.2830677 7.55323972,42.2602232 7.95,42.6 L10.78,45.43 Z" id="Shape" fill="#805333"/><path d="M14.31,41.89 L12.9,43.31 L10.78,41.18 C10.4402232,40.7832397 10.4630677,40.1918058 10.8324368,39.8224368 C11.2018058,39.4530677 11.7932397,39.4302232 12.19,39.77 L14.31,41.89 Z" id="Shape" fill="#805333"/><path d="M17.85,38.36 L16.44,39.77 L13.61,36.94 C13.2702232,36.5432397 13.2930677,35.9518058 13.6624368,35.5824368 C14.0318058,35.2130677 14.6232397,35.1902232 15.02,35.53 L17.85,38.36 Z" id="Shape" fill="#805333"/><path d="M59,41 L59,43 C59,43.5522847 58.5522847,44 58,44 L55,44 C51.69,44 48,46.69 48,50 L48,53 C48.0032948,54.1032019 48.8967981,54.9967052 50,55 C51.0612728,54.9986709 52.0794609,55.4196715 52.8298947,56.1701053 C53.5803285,56.9205391 54.0013291,57.9387272 54,59 L28,59 C27.9986709,57.9387272 28.4196715,56.9205391 29.1701053,56.1701053 C29.9205391,55.4196715 30.9387272,54.9986709 32,55 C33.1011688,54.9918328 33.9918328,54.1011688 34,53 L34,51.89 C34.0075718,50.8872718 33.2646788,50.0370244 32.27,49.91 C23,48.92 23,40 23,40 L58,40 C58.5522847,40 59,40.4477153 59,41 Z" id="Shape" fill="#3F5C6C"/><path d="M41,51 C42.6568542,51 44,52.3431458 44,54 L44,59 L38,59 L38,54 C38,52.3431458 39.3431458,51 41,51 Z" id="Shape" fill="#35495E"/><path d="M30,45 L28,45 C27.4477153,45 27,44.5522847 27,44 C27,43.4477153 27.4477153,43 28,43 L30,43 C30.5522847,43 31,43.4477153 31,44 C31,44.5522847 30.5522847,45 30,45 Z" id="Shape" fill="#95A5A5"/><path d="M47,45 L34,45 C33.4477153,45 33,44.5522847 33,44 C33,43.4477153 33.4477153,43 34,43 L47,43 C47.5522847,43 48,43.4477153 48,44 C48,44.5522847 47.5522847,45 47,45 Z" id="Shape" fill="#95A5A5"/><path d="M50,37 C49.7348057,36.9984374 49.4804541,36.8945473 49.29,36.71 C48.9032597,36.3156639 48.9032597,35.6843361 49.29,35.29 L49.439,35.17 C49.4951855,35.1322956 49.556027,35.102043 49.62,35.08 C49.6795467,35.0495504 49.7437653,35.0292708 49.81,35.02 C50.1359957,34.9594376 50.4711755,35.0599916 50.71,35.29 C50.9984599,35.5760905 51.0851619,36.0082668 50.929371,36.3834815 C50.77358,36.7586962 50.4062651,37.0023626 50,37 Z" id="Shape" fill="#F29C1F"/><path d="M53,33 L55.5,30.5" id="Shape" fill="#F3D55B"/><path d="M53,34 C52.5956041,33.9999137 52.2310659,33.7562725 52.076322,33.3826546 C51.9215781,33.0090366 52.0070921,32.5789943 52.293,32.293 L54.793,29.793 C55.1853789,29.4140278 55.8090848,29.4194476 56.1948186,29.8051814 C56.5805524,30.1909152 56.5859722,30.8146211 56.207,31.207 L53.707,33.707 C53.5195073,33.8945494 53.2651948,33.9999434 53,34 Z" id="Shape" fill="#F3D55B"/><path d="M54.247,36.004 L57.782,36.004" id="Shape" fill="#F3D55B"/><path d="M57.782,37 L54.247,37 C53.6947153,37 53.247,36.5522847 53.247,36 C53.247,35.4477153 53.6947153,35 54.247,35 L57.782,35 C58.3342847,35 58.782,35.4477153 58.782,36 C58.782,36.5522847 58.3342847,37 57.782,37 Z" id="Shape" fill="#F3D55B"/><path d="M32.782,37 C33.0471943,36.9984374 33.3015459,36.8945473 33.492,36.71 C33.8787403,36.3156639 33.8787403,35.6843361 33.492,35.29 L33.343,35.17 C33.2869252,35.1321054 33.2260578,35.1018398 33.162,35.08 C33.1027638,35.0496559 33.0388917,35.029379 32.973,35.02 C32.6470135,34.9596081 32.3119106,35.0601389 32.073,35.29 C31.7845401,35.5760905 31.6978381,36.0082668 31.853629,36.3834815 C32.00942,36.7586962 32.3767349,37.0023626 32.783,37 L32.782,37 Z" id="Shape" fill="#F29C1F"/><path d="M29.782,33 L28.782,32" id="Shape" fill="#F3D55B"/><path d="M29.782,34 C29.5168052,33.9999434 29.2624927,33.8945494 29.075,33.707 L28.075,32.707 C27.6960278,32.3146211 27.7014476,31.6909152 28.0871814,31.3051814 C28.4729152,30.9194476 29.0966211,30.9140278 29.489,31.293 L30.489,32.293 C30.7749079,32.5789943 30.8604219,33.0090366 30.705678,33.3826546 C30.5509341,33.7562725 30.1863959,33.9999137 29.782,34 Z" id="Shape" fill="#F3D55B"/><path d="M28.536,36.004 L25,36.004" id="Shape" fill="#F3D55B"/><path d="M28.536,37 L25,37 C24.4477153,37 24,36.5522847 24,36 C24,35.4477153 24.4477153,35 25,35 L28.536,35 C29.0882847,35 29.536,35.4477153 29.536,36 C29.536,36.5522847 29.0882847,37 28.536,37 Z" id="Shape" fill="#F3D55B"/></g></g></svg>
